<?xml version="1.0" encoding="UTF-8" standalone="no"?>
<!-- Created with Inkscape (http://www.inkscape.org/) -->

<svg
   width="163.24481mm"
   height="96.750786mm"
   viewBox="0 0 163.24481 96.750786"
   version="1.1"
   id="svg1"
   xmlns="http://www.w3.org/2000/svg"
   xmlns:svg="http://www.w3.org/2000/svg">
  <defs
     id="defs1" />
  <g
     id="layer1"
     transform="translate(-706.1094,-190.07233)">
    <g
       id="g194"
       transform="matrix(0.78596189,0,0,0.78596189,237.72787,-1.2220652)"
       style="fill:#000000;stroke-width:1.27233">
      <circle
         cx="697.16132"
         cy="313.19437"
         r="4.47544"
         fill="#ff0000"
         class="seat-party-1"
         id="circle135"
         style="fill:#000000;stroke-width:0.336636">
        <title
           id="title63">Party 1</title>
      </circle>
      <circle
         cx="702.08551"
         cy="301.57101"
         r="4.47544"
         fill="#ff0000"
         class="seat-party-1"
         id="circle136"
         style="fill:#000000;stroke-width:0.336636">
        <title
           id="title135">Party 1</title>
      </circle>
      <circle
         cx="711.73846"
         cy="293.43649"
         r="4.47544"
         fill="#ff0000"
         class="seat-party-1"
         id="circle137"
         style="fill:#000000;stroke-width:0.336636">
        <title
           id="title136">Party 1</title>
      </circle>
      <circle
         cx="724.02826"
         cy="290.55374"
         r="4.47544"
         fill="#ff0000"
         class="seat-party-1"
         id="circle138"
         style="fill:#000000;stroke-width:0.336636">
        <title
           id="title137">Party 1</title>
      </circle>
      <circle
         cx="736.29156"
         cy="293.54742"
         r="4.47544"
         fill="#ff0000"
         class="seat-party-1"
         id="circle139"
         style="fill:#000000;stroke-width:0.336636">
        <title
           id="title138">Party 1</title>
      </circle>
      <circle
         cx="745.87061"
         cy="301.7688"
         r="4.47544"
         fill="#ff0000"
         class="seat-party-1"
         id="circle140"
         style="fill:#000000;stroke-width:0.336636">
        <title
           id="title139">Party 1</title>
      </circle>
      <circle
         cx="750.68958"
         cy="313.43619"
         r="4.47544"
         fill="#ff0000"
         class="seat-party-1"
         id="circle141"
         style="fill:#000000;stroke-width:0.336636">
        <title
           id="title140">Party 1</title>
      </circle>
      <circle
         cx="686.38312"
         cy="313.19437"
         r="4.47544"
         fill="#ff0000"
         class="seat-party-1"
         id="circle142"
         style="fill:#000000;stroke-width:0.336636">
        <title
           id="title141">Party 1</title>
      </circle>
      <circle
         cx="690.42554"
         cy="300.14685"
         r="4.47544"
         fill="#ff0000"
         class="seat-party-1"
         id="circle143"
         style="fill:#000000;stroke-width:0.336636">
        <title
           id="title142">Party 1</title>
      </circle>
      <circle
         cx="698.84241"
         cy="289.38889"
         r="4.47544"
         fill="#ff0000"
         class="seat-party-1"
         id="circle144"
         style="fill:#000000;stroke-width:0.336636">
        <title
           id="title143">Party 1</title>
      </circle>
      <circle
         cx="710.53412"
         cy="282.32608"
         r="4.47544"
         fill="#ff0000"
         class="seat-party-1"
         id="circle145"
         style="fill:#000000;stroke-width:0.336636">
        <title
           id="title144">Party 1</title>
      </circle>
      <circle
         cx="723.9729"
         cy="279.88123"
         r="4.47544"
         fill="#ff0000"
         class="seat-party-1"
         id="circle146"
         style="fill:#000000;stroke-width:0.336636">
        <title
           id="title145">Party 1</title>
      </circle>
      <circle
         cx="737.40289"
         cy="282.37378"
         r="4.47544"
         fill="#ff0000"
         class="seat-party-1"
         id="circle147"
         style="fill:#000000;stroke-width:0.336636">
        <title
           id="title146">Party 1</title>
      </circle>
      <circle
         cx="749.0694"
         cy="289.47809"
         r="4.47544"
         fill="#ff0000"
         class="seat-party-1"
         id="circle148"
         style="fill:#000000;stroke-width:0.336636">
        <title
           id="title147">Party 1</title>
      </circle>
      <circle
         cx="757.44806"
         cy="300.2659"
         r="4.47544"
         fill="#ff0000"
         class="seat-party-1"
         id="circle149"
         style="fill:#000000;stroke-width:0.336636">
        <title
           id="title148">Party 1</title>
      </circle>
      <circle
         cx="761.44409"
         cy="313.32767"
         r="4.47544"
         fill="#ff0000"
         class="seat-party-1"
         id="circle150"
         style="fill:#000000;stroke-width:0.336636">
        <title
           id="title149">Party 1</title>
      </circle>
      <circle
         cx="675.65192"
         cy="313.19437"
         r="4.47544"
         fill="#ff0000"
         class="seat-party-1"
         id="circle151"
         style="fill:#000000;stroke-width:0.336636">
        <title
           id="title150">Party 1</title>
      </circle>
      <circle
         cx="678.57556"
         cy="300.53403"
         r="4.47544"
         fill="#ff0000"
         class="seat-party-1"
         id="circle152"
         style="fill:#000000;stroke-width:0.336636">
        <title
           id="title151">Party 1</title>
      </circle>
      <circle
         cx="684.758"
         cy="289.10559"
         r="4.47544"
         fill="#ff0000"
         class="seat-party-1"
         id="circle153"
         style="fill:#000000;stroke-width:0.336636">
        <title
           id="title152">Party 1</title>
      </circle>
      <circle
         cx="693.75476"
         cy="279.73065"
         r="4.47544"
         fill="#ff0000"
         class="seat-party-1"
         id="circle154"
         style="fill:#000000;stroke-width:0.336636">
        <title
           id="title153">Party 1</title>
      </circle>
      <circle
         cx="704.91913"
         cy="273.08316"
         r="4.47544"
         fill="#ff0000"
         class="seat-party-1"
         id="circle155"
         style="fill:#000000;stroke-width:0.336636">
        <title
           id="title154">Party 1</title>
      </circle>
      <circle
         cx="717.44843"
         cy="269.64102"
         r="4.47544"
         fill="#ff0000"
         class="seat-party-1"
         id="circle156"
         style="fill:#000000;stroke-width:0.336636">
        <title
           id="title155">Party 1</title>
      </circle>
      <circle
         cx="730.44196"
         cy="269.65167"
         r="4.47544"
         fill="#ff0000"
         class="seat-party-1"
         id="circle157"
         style="fill:#000000;stroke-width:0.336636">
        <title
           id="title156">Party 1</title>
      </circle>
      <circle
         cx="742.96558"
         cy="273.11438"
         r="4.47544"
         fill="#ff0000"
         class="seat-party-1"
         id="circle158"
         style="fill:#000000;stroke-width:0.336636">
        <title
           id="title157">Party 1</title>
      </circle>
      <circle
         cx="754.11902"
         cy="279.78018"
         r="4.47544"
         fill="#ff0000"
         class="seat-party-1"
         id="circle159"
         style="fill:#000000;stroke-width:0.336636">
        <title
           id="title158">Party 1</title>
      </circle>
      <circle
         cx="763.1004"
         cy="289.16989"
         r="4.47544"
         fill="#ff0000"
         class="seat-party-1"
         id="circle160"
         style="fill:#000000;stroke-width:0.336636">
        <title
           id="title159">Party 1</title>
      </circle>
      <circle
         cx="769.26404"
         cy="300.60846"
         r="4.47544"
         fill="#ff0000"
         class="seat-party-1"
         id="circle161"
         style="fill:#000000;stroke-width:0.336636">
        <title
           id="title160">Party 1</title>
      </circle>
      <circle
         cx="772.16687"
         cy="313.27356"
         r="4.47544"
         fill="#ff0000"
         class="seat-party-1"
         id="circle162"
         style="fill:#000000;stroke-width:0.336636">
        <title
           id="title161">Party 1</title>
      </circle>
      <circle
         cx="664.94214"
         cy="313.19437"
         r="4.47544"
         fill="#ff0000"
         class="seat-party-1"
         id="circle163"
         style="fill:#000000;stroke-width:0.336636">
        <title
           id="title162">Party 1</title>
      </circle>
      <circle
         cx="667.2312"
         cy="300.79581"
         r="4.47544"
         fill="#ff0000"
         class="seat-party-1"
         id="circle164"
         style="fill:#000000;stroke-width:0.336636">
        <title
           id="title163">Party 1</title>
      </circle>
      <circle
         cx="672.09674"
         cy="289.16434"
         r="4.47544"
         fill="#ff0000"
         class="seat-party-1"
         id="circle165"
         style="fill:#000000;stroke-width:0.336636">
        <title
           id="title164">Party 1</title>
      </circle>
      <circle
         cx="679.3175"
         cy="278.82877"
         r="4.47544"
         fill="#ff0000"
         class="seat-party-1"
         id="circle166"
         style="fill:#000000;stroke-width:0.336636">
        <title
           id="title165">Party 1</title>
      </circle>
      <circle
         cx="688.56531"
         cy="270.25891"
         r="4.47544"
         fill="#ff0000"
         class="seat-party-1"
         id="circle167"
         style="fill:#000000;stroke-width:0.336636">
        <title
           id="title166">Party 1</title>
      </circle>
      <circle
         cx="699.41974"
         cy="263.84442"
         r="4.47544"
         fill="#ff0000"
         class="seat-party-1"
         id="circle168"
         style="fill:#000000;stroke-width:0.336636">
        <title
           id="title167">Party 1</title>
      </circle>
      <circle
         cx="711.38727"
         cy="259.87683"
         r="4.47544"
         fill="#ff0000"
         class="seat-party-1"
         id="circle169"
         style="fill:#000000;stroke-width:0.336636">
        <title
           id="title168">Party 1</title>
      </circle>
      <circle
         cx="723.92395"
         cy="258.53656"
         r="4.47544"
         fill="#ff0000"
         class="seat-party-1"
         id="circle170"
         style="fill:#000000;stroke-width:0.336636">
        <title
           id="title169">Party 1</title>
      </circle>
      <circle
         cx="736.45978"
         cy="259.88455"
         r="4.47544"
         fill="#ff0000"
         class="seat-party-1"
         id="circle171"
         style="fill:#000000;stroke-width:0.336636">
        <title
           id="title170">Party 1</title>
      </circle>
      <circle
         cx="748.42493"
         cy="263.85947"
         r="4.47544"
         fill="#ff0000"
         class="seat-party-1"
         id="circle172"
         style="fill:#000000;stroke-width:0.336636">
        <title
           id="title171">Party 1</title>
      </circle>
      <circle
         cx="759.27533"
         cy="270.28067"
         r="4.47544"
         fill="#ff0000"
         class="seat-party-1"
         id="circle173"
         style="fill:#000000;stroke-width:0.336636">
        <title
           id="title172">Party 1</title>
      </circle>
      <circle
         cx="768.51788"
         cy="278.85617"
         r="4.47544"
         fill="#ff0000"
         class="seat-party-1"
         id="circle174"
         style="fill:#000000;stroke-width:0.336636">
        <title
           id="title173">Party 1</title>
      </circle>
      <circle
         cx="775.7323"
         cy="289.1962"
         r="4.47544"
         fill="#ff0000"
         class="seat-party-1"
         id="circle175"
         style="fill:#000000;stroke-width:0.336636">
        <title
           id="title174">Party 1</title>
      </circle>
      <circle
         cx="780.5907"
         cy="300.83063"
         r="4.47544"
         fill="#ff0000"
         class="seat-party-1"
         id="circle176"
         style="fill:#000000;stroke-width:0.336636">
        <title
           id="title175">Party 1</title>
      </circle>
      <circle
         cx="782.87213"
         cy="313.23062"
         r="4.47544"
         fill="#ff0000"
         class="seat-party-1"
         id="circle177"
         style="fill:#000000;stroke-width:0.336636">
        <title
           id="title176">Party 1</title>
      </circle>
      <circle
         cx="654.2439"
         cy="313.19437"
         r="4.47544"
         fill="#ff0000"
         class="seat-party-1"
         id="circle178"
         style="fill:#000000;stroke-width:0.336636">
        <title
           id="title177">Party 1</title>
      </circle>
      <circle
         cx="656.31348"
         cy="300.23148"
         r="4.47544"
         fill="#ff0000"
         class="seat-party-1"
         id="circle179"
         style="fill:#000000;stroke-width:0.336636">
        <title
           id="title178">Party 1</title>
      </circle>
      <circle
         cx="660.77344"
         cy="287.88528"
         r="4.47544"
         fill="#ff0000"
         class="seat-party-1"
         id="circle180"
         style="fill:#000000;stroke-width:0.336636">
        <title
           id="title179">Party 1</title>
      </circle>
      <circle
         cx="667.46594"
         cy="276.59238"
         r="4.47544"
         fill="#ff0000"
         class="seat-party-1"
         id="circle181"
         style="fill:#000000;stroke-width:0.336636">
        <title
           id="title180">Party 1</title>
      </circle>
      <circle
         cx="676.15436"
         cy="266.75211"
         r="4.47544"
         fill="#ff0000"
         class="seat-party-1"
         id="circle182"
         style="fill:#000000;stroke-width:0.336636">
        <title
           id="title181">Party 1</title>
      </circle>
      <circle
         cx="686.53137"
         cy="258.71246"
         r="4.47544"
         fill="#ff0000"
         class="seat-party-1"
         id="circle183"
         style="fill:#000000;stroke-width:0.336636">
        <title
           id="title182">Party 1</title>
      </circle>
      <circle
         cx="698.23016"
         cy="252.75777"
         r="4.47544"
         fill="#ff0000"
         class="seat-party-1"
         id="circle184"
         style="fill:#000000;stroke-width:0.336636">
        <title
           id="title183">Party 1</title>
      </circle>
      <circle
         cx="710.83685"
         cy="249.09859"
         r="4.47544"
         fill="#ff0000"
         class="seat-party-1"
         id="circle185"
         style="fill:#000000;stroke-width:0.336636">
        <title
           id="title184">Party 1</title>
      </circle>
      <circle
         cx="723.90576"
         cy="247.8643"
         r="4.47544"
         fill="#ff0000"
         class="seat-party-1"
         id="circle186"
         style="fill:#000000;stroke-width:0.336636">
        <title
           id="title185">Party 1</title>
      </circle>
      <circle
         cx="736.97467"
         cy="249.09859"
         r="4.47544"
         fill="#ff0000"
         class="seat-party-1"
         id="circle187"
         style="fill:#000000;stroke-width:0.336636">
        <title
           id="title186">Party 1</title>
      </circle>
      <circle
         cx="749.58142"
         cy="252.75777"
         r="4.47544"
         fill="#ff0000"
         class="seat-party-1"
         id="circle188"
         style="fill:#000000;stroke-width:0.336636">
        <title
           id="title187">Party 1</title>
      </circle>
      <circle
         cx="761.28015"
         cy="258.71246"
         r="4.47544"
         fill="#ff0000"
         class="seat-party-1"
         id="circle189"
         style="fill:#000000;stroke-width:0.336636">
        <title
           id="title188">Party 1</title>
      </circle>
      <circle
         cx="771.65723"
         cy="266.75211"
         r="4.47544"
         fill="#ff0000"
         class="seat-party-1"
         id="circle190"
         style="fill:#000000;stroke-width:0.336636">
        <title
           id="title189">Party 1</title>
      </circle>
      <circle
         cx="780.34564"
         cy="276.59238"
         r="4.47544"
         fill="#ff0000"
         class="seat-party-1"
         id="circle191"
         style="fill:#000000;stroke-width:0.336636">
        <title
           id="title190">Party 1</title>
      </circle>
      <circle
         cx="787.03815"
         cy="287.88528"
         r="4.47544"
         fill="#ff0000"
         class="seat-party-1"
         id="circle192"
         style="fill:#000000;stroke-width:0.336636">
        <title
           id="title191">Party 1</title>
      </circle>
      <circle
         cx="791.49805"
         cy="300.23148"
         r="4.47544"
         fill="#ff0000"
         class="seat-party-1"
         id="circle193"
         style="fill:#000000;stroke-width:0.336636">
        <title
           id="title192">Party 1</title>
      </circle>
      <circle
         cx="793.56769"
         cy="313.19437"
         r="4.47544"
         fill="#ff0000"
         class="seat-party-1"
         id="circle194"
         style="fill:#000000;stroke-width:0.336636">
        <title
           id="title193">Party 1</title>
      </circle>
    </g>
    <path
       id="path209"
       style="font-size:73.2864px;line-height:1.25;font-family:'Times New Roman';-inkscape-font-specification:'Times New Roman, ';stroke-width:0.264583"
       d="m 852.82033,254.43099 c -3.79342,0 -6.73975,0.80792 -8.83925,2.42417 -2.09951,1.61626 -3.14917,3.38956 -3.14917,5.32008 0,1.01017 0.27396,1.80698 0.8227,2.39062 0.57258,0.58364 1.30058,0.87582 2.18333,0.87582 0.9066,0 1.63407,-0.28058 2.18281,-0.84178 0.57259,-0.5612 0.85886,-1.3585 0.85886,-2.39111 l -0.0713,-1.95296 c 0,-0.98771 0.45301,-1.86276 1.35961,-2.62599 0.88275,-0.76323 2.07555,-1.14522 3.5786,-1.14522 1.9802,0 3.48338,0.57274 4.50928,1.71759 1.04976,1.14486 1.57458,3.25472 1.57458,6.3301 v 1.21234 c -5.6305,1.93052 -9.66239,3.56907 -12.0959,4.91595 -2.40966,1.34689 -4.10369,2.78357 -5.08186,4.31003 -0.71575,1.09996 -1.07333,2.40192 -1.07333,3.90592 0,2.37948 0.72748,4.29909 2.18282,5.75822 1.47919,1.45911 3.35226,2.18833 5.61878,2.18833 1.45533,0 2.82717,-0.28058 4.11551,-0.84179 0.85889,-0.3816 2.97,-1.7956 6.33398,-4.24243 0.0239,1.84074 0.38195,3.14268 1.07383,3.90593 0.69189,0.76322 1.62252,1.14473 2.79157,1.14473 2.43351,0 4.98635,-1.68346 7.65844,-5.05066 v -1.88585 c -1.43147,1.34687 -2.39802,2.16639 -2.89904,2.45822 -0.2863,0.15714 -0.62028,0.23586 -1.00201,0.23586 -0.35787,0 -0.68005,-0.11253 -0.96634,-0.33701 -0.26244,-0.22448 -0.4533,-0.66199 -0.57259,-1.31299 -0.11929,-0.67344 -0.17879,-2.48054 -0.17879,-5.42122 v -10.47237 c 0,-2.98557 -0.21497,-4.96072 -0.64441,-5.92597 -0.66803,-1.48158 -1.70588,-2.57056 -3.11351,-3.26645 -1.86091,-0.92038 -4.2465,-1.38011 -7.15718,-1.38011 z m 5.01003,13.36776 v 11.75132 c -2.9584,2.2448 -5.34398,3.3671 -7.15719,3.3671 -1.33604,0 -2.51704,-0.52735 -3.54293,-1.5824 -1.0259,-1.0775 -1.53892,-2.42436 -1.53892,-4.04063 0,-1.27952 0.40581,-2.45834 1.21697,-3.53584 0.81117,-1.0775 2.1589,-2.10998 4.04368,-3.0977 1.04976,-0.56121 3.37582,-1.51496 6.97839,-2.86185 z" />
    <path
       style="font-size:73.2864px;line-height:1.25;font-family:'Times New Roman';-inkscape-font-specification:'Times New Roman, ';stroke-width:0.264583"
       d="m 831.79045,254.43076 v 24.78258 q 0,2.8958 0.42944,3.87229 0.46524,0.94281 1.32413,1.41422 0.89468,0.4714 3.22083,0.4714 v 1.2122 h -15.92522 v -1.2122 q 2.39773,0 3.22083,-0.43773 0.8231,-0.43773 1.28833,-1.44789 0.50103,-1.01017 0.50103,-3.87229 v -11.88621 q 0,-5.01712 -0.32209,-6.49869 -0.25051,-1.0775 -0.78732,-1.48156 -0.53681,-0.43774 -1.46726,-0.43774 -1.00204,0 -2.43352,0.50508 l -0.50102,-1.2122 9.87722,-3.77126 z"
       id="path208" />
    <path
       style="font-size:73.2864px;line-height:1.25;font-family:'Times New Roman';-inkscape-font-specification:'Times New Roman, ';stroke-width:0.264583"
       d="m 827.7618,241.47689 q 1.50305,0 2.54088,1.07346 1.0736,1.03767 1.0736,2.5405 0,1.50283 -1.0736,2.57629 -1.03783,1.07345 -2.54088,1.07345 -1.50305,0 -2.57667,-1.07345 -1.07361,-1.07346 -1.07361,-2.57629 0,-1.50283 1.03783,-2.5405 1.07361,-1.07346 2.61245,-1.07346 z"
       id="path207" />
    <path
       style="font-size:73.2864px;line-height:1.25;font-family:'Times New Roman';-inkscape-font-specification:'Times New Roman, ';stroke-width:0.264583"
       d="m 811.39186,238.30189 v 40.91145 q 0,2.8958 0.42944,3.8386 0.46524,0.94283 1.39571,1.44791 0.93045,0.4714 3.47133,0.4714 v 1.2122 h -16.06836 v -1.2122 q 2.25457,0 3.07768,-0.43773 0.8231,-0.43773 1.28833,-1.44789 0.46523,-1.01017 0.46523,-3.87229 v -28.01509 q 0,-5.21915 -0.2505,-6.39767 -0.25052,-1.21219 -0.82311,-1.64993 -0.5368,-0.43773 -1.3957,-0.43773 -0.93046,0 -2.36193,0.53874 l -0.60839,-1.1785 9.76986,-3.77127 z"
       id="path206" />
    <path
       style="font-size:73.2864px;line-height:1.25;font-family:'Times New Roman';-inkscape-font-specification:'Times New Roman, ';stroke-width:0.264583"
       d="m 786.89064,254.43076 v 6.93644 q 4.1155,-6.93644 8.44573,-6.93644 1.96829,0 3.25662,1.14484 1.28834,1.11119 1.28834,2.59275 0,1.31321 -0.93046,2.22236 -0.93047,0.90914 -2.2188,0.90914 -1.25255,0 -2.82717,-1.14485 -1.53885,-1.17852 -2.29037,-1.17852 -0.64417,0 -1.39569,0.67344 -1.61042,1.38054 -3.3282,4.54572 v 14.782 q 0,2.55907 0.67995,3.87228 0.46524,0.90914 1.64621,1.51524 1.18097,0.60609 3.39976,0.60609 v 1.2122 h -16.7841 v -1.2122 q 2.50509,0 3.72184,-0.74077 0.89468,-0.53876 1.25255,-1.71729 0.17894,-0.57242 0.17894,-3.26617 v -11.95356 q 0,-5.38751 -0.25051,-6.39769 -0.21473,-1.04381 -0.85889,-1.51522 -0.60838,-0.47141 -1.53884,-0.47141 -1.1094,0 -2.50509,0.50508 l -0.35787,-1.2122 9.913,-3.77126 z"
       id="path205" />
    <path
       id="path203"
       style="font-size:73.2864px;line-height:1.25;font-family:'Times New Roman';-inkscape-font-specification:'Times New Roman, ';stroke-width:0.264583"
       d="m 757.80341,254.43099 c -3.79342,0 -6.73975,0.80792 -8.83926,2.42417 -2.0995,1.61626 -3.14916,3.38956 -3.14916,5.32008 0,1.01017 0.27396,1.80698 0.82269,2.39062 0.57259,0.58364 1.30058,0.87582 2.18333,0.87582 0.90661,0 1.63408,-0.28058 2.18281,-0.84178 0.57259,-0.5612 0.85886,-1.3585 0.85886,-2.39111 l -0.0713,-1.95296 c 0,-0.98771 0.45301,-1.86276 1.35961,-2.62599 0.88274,-0.76323 2.07605,-1.14522 3.57911,-1.14522 1.98021,0 3.48287,0.57274 4.50876,1.71759 1.04976,1.14486 1.57459,3.25472 1.57459,6.3301 v 1.21234 c -5.63049,1.93052 -9.66238,3.56907 -12.0959,4.91595 -2.40966,1.34689 -4.10368,2.78357 -5.08187,4.31003 -0.71574,1.09996 -1.07331,2.40192 -1.07331,3.90592 0,2.37948 0.72747,4.29909 2.18281,5.75822 1.47919,1.45911 3.35226,2.18833 5.61878,2.18833 1.45533,0 2.82717,-0.28058 4.1155,-0.84179 0.8589,-0.3816 2.97001,-1.7956 6.33399,-4.24243 0.0239,1.84074 0.38196,3.14268 1.07384,3.90593 0.69188,0.76322 1.62251,1.14473 2.79155,1.14473 2.43351,0 4.98636,-1.68346 7.65846,-5.05066 v -1.88585 c -1.43149,1.34687 -2.39804,2.16639 -2.89906,2.45822 -0.28629,0.15714 -0.62027,0.23586 -1.002,0.23586 -0.35788,0 -0.68006,-0.11253 -0.96635,-0.33701 -0.26244,-0.22448 -0.45329,-0.66199 -0.57257,-1.31299 -0.11929,-0.67344 -0.17881,-2.48054 -0.17881,-5.42122 v -10.47237 c 0,-2.98557 -0.21495,-4.96072 -0.6444,-5.92597 -0.66803,-1.48158 -1.70537,-2.57056 -3.11299,-3.26645 -1.86093,-0.92038 -4.24703,-1.38011 -7.1577,-1.38011 z m 5.01003,13.36776 v 11.75132 c -2.95839,2.2448 -5.34398,3.3671 -7.15719,3.3671 -1.33605,0 -2.51704,-0.52735 -3.54294,-1.5824 -1.02589,-1.0775 -1.53892,-2.42436 -1.53892,-4.04063 0,-1.27952 0.40581,-2.45834 1.21698,-3.53584 0.81117,-1.0775 2.1589,-2.10998 4.04368,-3.0977 1.04975,-0.56121 3.37583,-1.51496 6.97839,-2.86185 z" />
    <path
       id="text5"
       style="font-size:73.2864px;line-height:1.25;font-family:'Times New Roman';-inkscape-font-specification:'Times New Roman, ';stroke-width:0.264583"
       d="m 706.10943,240.52441 v 1.24589 h 1.82521 c 1.83707,0 3.2207,0.49355 4.15117,1.48126 0.64416,0.69589 0.96635,2.48077 0.96635,5.3541 v 29.49671 c 0,2.60397 -0.23856,4.25363 -0.71572,4.94951 -0.88274,1.25709 -2.35001,1.88585 -4.4018,1.88585 h -1.82521 v 1.24589 h 20.79201 v -1.24589 h -1.86087 c -1.83706,0 -3.2089,-0.49404 -4.11551,-1.48173 -0.66803,-0.69591 -1.002,-2.48029 -1.002,-5.35363 v -13.30066 c 1.55076,0.31428 3.00623,0.54994 4.36614,0.70707 1.3599,0.15714 2.62452,0.23585 3.79356,0.23585 4.77161,0 8.45772,-1.16722 11.05824,-3.5018 2.62438,-2.33459 3.9362,-5.36541 3.9362,-9.09177 0,-2.73866 -0.85881,-5.1069 -2.57659,-7.10477 -1.71777,-1.99786 -3.8294,-3.41184 -6.3345,-4.24243 -2.50509,-0.85302 -5.92853,-1.27945 -10.27069,-1.27945 z m 18.50171,2.72715 c 2.00407,0 3.79352,0.42641 5.36815,1.27943 1.57463,0.83058 2.79154,2.09922 3.65042,3.80526 0.8589,1.68362 1.2883,3.51291 1.2883,5.48833 0,2.87335 -0.90653,5.21938 -2.71973,7.03766 -1.78936,1.79584 -3.92509,2.69359 -6.40633,2.69359 -0.69188,0 -1.52658,-0.056 -2.50476,-0.16826 -0.97818,-0.11225 -2.09966,-0.28079 -3.36413,-0.50526 v -18.99079 c 1.90864,-0.42651 3.47132,-0.63996 4.68808,-0.63996 z" />
  </g>
</svg>
