<?xml version="1.0" encoding="UTF-8" standalone="no"?>
<!-- Created with Inkscape (http://www.inkscape.org/) -->

<svg
   width="177.10703mm"
   height="109.82232mm"
   viewBox="0 0 177.10703 109.82232"
   version="1.1"
   id="svg1"
   xmlns="http://www.w3.org/2000/svg"
   xmlns:svg="http://www.w3.org/2000/svg">
  <defs
     id="defs1" />
  <path
     id="path4"
     style="display:inline;fill:#ffffff;stroke-width:0.264583"
     class="seat-party-1"
     d="m 107.24412,0.00423542 c -0.0774,0.0061 -0.15418,0.01296 -0.23099,0.02067 a 65.205048,65.205048 0 0 0 -32.171161,8.73434998 65.205048,65.205048 0 0 0 -1.8588,1.23506 c -0.45125,0.2417196 -0.88265,0.5193696 -1.28313,0.8526696 a 65.205048,65.205048 0 0 0 -28.54916,43.5162 c -0.26572,-0.12877 -0.52961,-0.25653 -0.78755,-0.37879 -6.04762,-2.75004 -12.77461,-3.61355 -19.34146,-3.53466 -7.67408,-0.008 -15.3487793,-0.0068 -23.021849346421,0.1328 0.04089999642,4.49861 0.06689999642,8.99704 0.08009999642,13.49582 2.20940005,0.9765 4.54677005,1.61374 6.88485005,2.19728 -0.0152,9.468738 -0.0306,18.937798 -0.0486,28.406538 -2.23421,-0.28896 -4.89529,0.24197 -6.14071005,2.3058 -1.28829,2.46227 -0.46099,5.307047 -0.6687,7.946287 -0.0302,1.60191 -0.019,3.20548 -0.032,4.80797 l -0.07489999642,0.0631 H 0.07445965 c -5e-5,0.006 5e-5,0.0113 0,0.017 l 0.22996,-0.017 H 163.98228 c 5.08642,-0.74759 9.83362,-3.82281 12.18117,-8.42791 1.4288,-3.204817 0.77642,-6.777907 0.89607,-10.166817 -0.002,-3.01211 -0.003,-6.02455 -0.005,-9.03666 -1.46799,1.11174 -2.93662,2.22279 -4.4049,3.33416 V 65.228675 a 65.205048,65.205048 0 0 0 -0.0785,-3.19877 c 0.0313,-0.73306 -0.0163,-1.46893 -0.1447,-2.1916 a 65.205048,65.205048 0 0 0 -1.63039,-10.04797 c -0.10027,-0.60868 -0.25755,-1.20616 -0.46302,-1.78852 a 65.205048,65.205048 0 0 0 -3.71605,-9.91722 c -0.27331,-0.68037 -0.59238,-1.33948 -0.9772,-1.96164 a 65.205048,65.205048 0 0 0 -4.90668,-8.25272 c -0.219,-0.36391 -0.45598,-0.71618 -0.71055,-1.05627 a 65.205048,65.205048 0 0 0 -17.48679,-16.39332 c -0.10882,-0.07214 -0.21408,-0.14822 -0.32504,-0.21704 a 65.205048,65.205048 0 0 0 -2.1637,-1.4443496 65.205048,65.205048 0 0 0 -19.96984,-7.36544 c -0.0637,-0.01462 -0.1278,-0.02562 -0.19172,-0.03928 A 65.205048,65.205048 0 0 0 108.10218,0.02696542 c -0.28265,-0.02409 -0.56823,-0.03307 -0.85783,-0.02273 z">
    <title
       id="title3">Party 1</title>
  </path>
  <path
     style="display:none;fill:#ffffff;stroke:none;stroke-width:0.264584"
     id="path2"
     d="m 31.830509,-18.456175 a 67.784592,67.784592 0 0 1 -33.8922966,58.703179 67.784592,67.784592 0 0 1 -67.7845924,-2e-6 67.784592,67.784592 0 0 1 -33.89229,-58.703177"
     transform="scale(1,-1)" />
  <path
     id="path3"
     style="display:none;fill:#800000;stroke-width:0.264583"
     class="seat-party-1"
     d="m 107.24416,0.00441142 c -1.94497,0.15406 -3.70713,0.814565 -5.43243,1.53061498 -0.64493,0.323745 -1.33382,-0.255938 -2.020991,-0.245373 -3.53835,-0.63164498 -7.31525,0.375959 -10.0876,2.658117 -3.94639,-0.483168 -8.00873,1.033391 -10.83008,3.798828 -2.56771,1.217824 -5.68183,1.456116 -7.73047,3.6152336 -1.0659,1.038765 -1.90942,2.142213 -2.66992,3.410157 -4.06377,1.057417 -7.49137,4.252776 -8.79297,8.25 -3.78817,1.779566 -6.5265,5.558849 -7.06836,9.705078 -3.37236,2.481007 -5.35764,6.698643 -5.11914,10.878906 -2.5859,2.955422 -3.71511,6.762772 -5.1289,10.378906 -6.04762,-2.750038 -12.77456,-3.613845 -19.34141,-3.534955 C 15.347809,50.442224 7.6730897,50.443124 1.9653579e-5,50.582535 0.04091965,55.081149 0.06691965,59.579851 0.08011965,64.078629 c 2.20940005,0.976503 4.54669005,1.613728 6.88477005,2.197266 -0.0152,9.468748 -0.0308,18.937508 -0.0488,28.406248 -2.23421,-0.28896 -4.89498,0.24232 -6.14040005,2.30615 -1.28829,2.46227 -0.46139,5.307167 -0.6691,7.946407 -0.0307,1.62869 -0.0182,3.25882 -0.0323,4.88807 11.51757935,0 23.03515935,0 34.55273935,0 10e-4,-3.19336 0.004,-6.38672 0.004,-9.58008 4.4618,3.63975 8.82918,7.75766 14.42484,9.5607 3.58445,1.16167 7.39849,0.36436 10.95994,-0.45599 3.01214,-0.34965 5.85509,1.42103 8.87107,0.87946 2.74241,-0.26823 5.4894,-0.62894 8.25039,-0.45671 18.57279,0.0985 37.146651,0.009 55.718791,0.20481 5.6122,0.0716 11.22415,0.2789 16.83554,0.31714 1.87701,-0.0685 3.68652,-0.62629 5.49831,-1.04409 3.05374,-0.23868 5.87159,1.63196 8.92664,0.94023 5.08642,-0.74759 9.69905,-4.20557 12.0466,-8.81067 1.4288,-3.204817 0.77657,-6.777997 0.89622,-10.166907 -0.002,-3.01211 -0.003,-6.02422 -0.005,-9.03633 -2.47702,1.8759 -4.95614,3.74903 -7.43164,5.62695 0.48352,-4.37509 1.21428,-8.81633 0.87696,-13.1582 -0.06,-1.65729 -0.74591,-3.38287 -0.27589,-5.08908 0.37124,-1.809601 1.58174,-3.300801 1.95392,-5.113523 0.58926,-2.045204 0.53836,-4.256663 -0.199,-6.2584 -0.66347,-2.109116 -1.3419,-4.297901 -1.06164,-6.536499 0.1074,-3.046557 -1.33588,-5.947546 -3.34513,-8.162655 0.16656,-4.025438 -1.59709,-8.150296 -4.84765,-10.583984 -0.65675,-0.672913 -0.44604,-1.710515 -0.83397,-2.520116 -1.04831,-3.229129 -3.47929,-5.963145 -6.54103,-7.421291 -1.31184,-3.975657 -4.71912,-7.169914 -8.77735,-8.207031 -2.01324,-3.671807 -5.96514,-6.1599076 -10.13867,-6.4277336 -2.67865,-3.221385 -7.02627,-4.925958 -11.18164,-4.412109 -3.03243,-2.496258 -7.25253,-3.43416098 -11.06055,-2.486329 -2.39565,-0.258172 -4.53522,-1.50603398 -6.94726,-1.41992098 z M 57.419939,59.082535 c 4.85324,0.315276 8.43177,5.881019 6.80903,10.439488 -0.29953,0.97359 -0.89707,1.85544 -1.30513,2.74997 1.16224,1.16435 2.10668,2.56946 2.51849,4.17876 0.7709,2.66428 0.0707,5.82115 -2.15127,7.59436 -3.0074,2.59054 -8.11281,2.62284 -10.82425,-0.42547 -2.62433,-2.73111 -2.72448,-7.39679 -0.28762,-10.27831 0.16398,-0.30578 -0.44679,-0.56655 -0.59388,-0.88216 -2.38303,-2.86577 -2.69075,-7.435076 -0.23882,-10.35837 1.44322,-1.833363 3.70955,-3.077232 6.07345,-3.018268 z m 92.765621,0.478516 c 4.77455,-0.111011 8.70148,5.045725 7.51758,9.626953 -1.09773,4.508529 -6.89855,7.035319 -10.93384,4.728569 -3.22301,-1.62249 -5.16015,-5.762159 -3.77612,-9.199831 1.11791,-2.930405 4.03111,-5.101549 7.19238,-5.155691 z m -11.52929,18.205082 c 4.79186,-0.0374 8.67547,5.21149 7.36132,9.79101 -1.15373,4.48314 -6.80509,7.10799 -10.94336,4.98242 -3.57312,-1.74907 -5.40709,-6.5746 -3.47394,-10.14658 1.30027,-2.64239 4.04731,-4.65542 7.05598,-4.62685 z">
    <title
       id="title2">Party 1</title>
  </path>
  <path
     id="circle135"
     style="display:none;fill:#800000;stroke-width:0.264583"
     class="seat-party-1"
     d="m 107.0956,3.6690344 c -2.02785,0.11774 -3.93325,1.2736 -5.0703,2.9414 -2.405051,-2.43434 -6.782311,-2.68125 -9.259531,-0.22071 -0.6962,0.63863 -1.26006,1.42446 -1.62914,2.29493 -2.74878,-1.91412 -6.95629,-1.4057 -8.98218,1.3297796 -0.64092,0.79864 -1.07677,1.75269 -1.31274,2.74639 -2.76276,-1.25929 -6.33038,-0.34337 -8.06439,2.17484 -0.7825,1.07837 -1.24013,2.38944 -1.30671,3.71969 -3.46162,-0.80753 -7.34916,1.60306 -7.99746,5.1351 -0.1746,0.79864 -0.19822,1.63233 -0.0631,2.43912 -3.61246,-0.16546 -7.00474,3.03724 -6.91837,6.67851 -0.007,0.77318 0.13338,1.54735 0.39884,2.27267 -3.61856,0.52846 -6.39315,4.40326 -5.52148,8 0.15593,0.70766 0.41993,1.39405 0.79687,2.01367 -3.34163,1.17116 -5.38657,5.26265 -4.03804,8.59773 0.28064,0.78331 0.72274,1.50742 1.27437,2.12883 -3.0138,1.74759 -4.2835,6.02044 -2.45549,9.04586 1.6271,2.89079 5.55614,4.306519 8.58315,2.81601 0.5218,-0.22761 0.98353,-0.5661 1.44656,-0.89117 0.63775,0.50567 1.3697,0.8933 2.14844,1.13086 -3.62836,-0.0321 -7.4061,0.52503 -10.49295,2.558569 -0.56905,0.35755 -1.10303,0.76884 -1.60862,1.21096 0.54969,-4.798629 -1.32421,-9.880579 -5.12398,-12.929929 -3.74606,-3.19317 -8.74117,-4.47239 -13.57592,-4.6239 -5.28976,-0.2715 -10.58979,-0.0627 -15.88408,-0.13171 H 3.7772397 v 7.40429 c 2.14924,0.56497 4.43449,-0.25095 6.5416693,0.50854 0.53477,0.6714 0.18593,1.66527 0.35533,2.47037 0.0548,10.843299 0.10248,21.688679 -0.0396,32.530859 -0.008,0.5447 -0.0862,1.30812 -0.7734293,1.35547 -1.71432,0.35161 -3.4815,-0.0139 -5.2145,0.19768 -0.83368,-0.16107 -1.00269,0.30139 -0.86949,1.05037 v 6.494137 H 30.921749 v -7.390627 c -2.16543,-0.57769 -4.46784,0.24399 -6.59179,-0.52734 -0.49957,-0.77723 -0.20024,-1.77589 -0.34734,-2.64568 -0.053,-3.41473 -0.0366,-6.82995 -0.0374,-10.24495 5.29567,0.74005 11.01009,0.50596 15.75735,-2.19679 1.45442,-0.84286 2.75022,-1.95214 3.83249,-3.2368 0.27597,2.51888 2.14864,4.86153 4.69531,5.33984 0.60764,0.053 0.78979,0.12775 0.2037,0.41219 -2.84433,1.77056 -5.34242,4.45485 -5.99236,7.83636 -1.02544,4.7678 1.33936,10.255577 5.89999,12.261217 4.38151,1.98309 9.7744,0.98209 13.43164,-2.04492 1.44948,2.42938 4.58306,3.49077 7.28685,2.88544 1.6139,-0.28287 3.11847,-1.0248 4.44167,-1.97529 0.15445,0.45467 -0.33766,1.55588 0.3,1.52735 h 22.83672 v -7.443357 c -1.73669,-0.36542 -3.61326,0.27428 -5.26368,-0.50391 -0.76098,-1.17895 -0.34341,-2.65658 -0.45538,-3.97461 l -0.007,-12.37891 c 0.51859,-0.86676 1.02876,-1.75209 1.72461,-2.49218 1.61511,1.18738 3.56808,2.14877 5.6284,1.86355 2.004711,-0.21164 3.893351,-1.42825 4.859881,-3.20535 -0.005,6.55714 0.0274,13.11585 -0.082,19.67187 0.012,0.47766 -0.0856,1.0346 -0.70184,0.87588 -1.14842,-0.0833 -2.434051,0.0451 -3.247281,0.95892 -0.86623,0.857807 -0.90711,2.141807 -0.81135,3.277667 -0.0963,1.09254 0.0762,2.38447 1.115,2.99012 1.223561,0.75917 2.722521,0.21668 4.066181,0.36031 h 37.32147 v -2.07422 c 3.52519,3.12781 8.93579,3.4763 13.08989,1.44598 1.02593,-0.49043 1.99671,-1.0885 2.92574,-1.74286 1.50862,2.34448 4.53549,3.42223 7.22115,2.82633 3.64306,-0.64831 6.46997,-3.34745 8.69459,-6.13703 0.65749,-0.784797 0.77086,-1.824527 0.65848,-2.802577 v -7.96289 c -1.97105,1.48827 -3.7835,3.16555 -5.58985,4.8457 -0.10543,-5.06058 0.074,-10.1256 -0.10233,-15.18441 -0.14038,-2.21846 -0.36703,-4.57429 -1.75896,-6.4072 -1.64548,-2.41661 -4.38678,-3.852359 -7.20924,-4.393709 -0.94291,-0.2096 -1.90037,-0.35118 -2.86306,-0.42679 0.82085,-0.24345 1.60166,-0.64073 2.25195,-1.20117 2.80013,2.32688 7.53839,1.79353 9.59099,-1.27452 2.05184,-2.80346 1.52899,-7.24564 -1.382,-9.26454 -0.36821,-0.2486 -0.84425,-0.4122 -0.34364,-0.78409 2.02308,-2.6577 1.77369,-6.88994 -0.86339,-9.05771 -0.64522,-0.57367 -1.40545,-1.01778 -2.22266,-1.29687 1.71265,-2.82083 1.00901,-6.92038 -1.77669,-8.795 -0.86252,-0.63221 -1.88529,-1.0337 -2.9362,-1.21672 1.12063,-2.93695 -0.16303,-6.58244 -2.96031,-8.06837 -1.06712,-0.61091 -2.30189,-0.91794 -3.52992,-0.91015 0.55113,-3.21772 -1.61804,-6.61557 -4.77545,-7.45821 -1.06564,-0.31916 -2.2157,-0.36005 -3.30073,-0.11405 -0.07,-3.57355 -3.40837,-6.71878 -6.99698,-6.46739 -0.80996,0.0315 -1.61311,0.22351 -2.35458,0.54942 -0.74392,-3.5412196 -4.70043,-6.0486496 -8.2115,-5.0249496 -0.73785,0.20336 -1.44505,0.52368 -2.07561,0.95854 -1.38724,-3.29509 -5.6562,-5.04501 -8.90808,-3.45823 -0.73361,0.34609 -1.4018,0.82618 -1.98059,1.39378 -1.30982,-1.92074 -3.65432,-3.09606 -5.98047,-2.94531 z m -2.88085,45.9667796 c 2.17909,1.2648 5.10041,1.25935 7.18554,-0.20312 0.54316,0.99363 1.35201,1.83276 2.30469,2.44141 -1.83438,2.3e-4 -3.73695,-0.1232 -5.45186,0.66209 -3.86407,1.58868 -7.83975,3.03393 -11.754521,4.57732 7.2e-4,0.448 0.53086,1.09669 0.73641,1.62227 0.85996,1.66841 1.71847,3.33757 2.57935,5.0055 1.110351,-0.0896 2.130801,-0.54903 3.173831,-0.89648 0.13093,3.00642 0.0854,6.01839 0.11914,9.027339 -1.66504,-3.110569 -5.622731,-4.427429 -8.947451,-3.606139 -1.16468,0.26077 -2.28252,0.74946 -3.24786,1.453799 v -1.738279 c -0.72198,0.01 -1.44396,0.0272 -2.16602,0.0137 3.28676,-1.0348 5.15067,-4.92453 4.18386,-8.17898 -0.0393,-0.44422 -0.67013,-1.06089 0.0896,-1.11985 2.30417,-1.01477 3.99488,-3.3832 4.04687,-5.92187 2.65308,0.40978 5.503261,-1.0065 6.753901,-3.39063 0.13151,0.084 0.26302,0.16797 0.39453,0.25195 z m 11.63085,3.14649 c 0.74313,0.16901 1.51537,0.21582 2.27149,0.11133 0.0754,2.62992 1.83442,5.14136 4.30273,6.07031 -1.44977,2.97453 -0.33933,6.91901 2.51563,8.6289 1.1019,0.7039 2.41021,1.07453 3.7168,1.06641 -3.33949,1.393109 -6.76171,2.597399 -10.1334,3.917039 -0.40331,0.28812 -1.47339,0.28889 -1.44233,0.7638 0.91064,2.19922 1.81961,4.39914 2.73002,6.59846 1.23161,-0.096 2.38024,-0.66174 3.54492,-0.94141 0.20942,4.03032 0.15227,8.07226 0.17144,12.1078 -0.0322,2.39377 0.002,4.79982 -0.13823,7.18517 -0.22142,0.4402 -0.86478,0.15168 -1.26797,0.24219 -0.77631,-0.047 -1.57512,0.0644 -2.3192,0.17184 -1.36749,-0.42515 -2.87009,0.13458 -4.21166,-0.34958 -0.2845,-1.41543 -0.0728,-2.876 -0.16043,-4.31054 -0.004,-13.79362 -0.008,-27.587239 -0.0114,-41.380859 0.14388,0.0397 0.28776,0.0794 0.43164,0.11914 z m -90.314441,10.4043 c 2.74049,-0.0959 5.70076,1.47778 6.47833,4.24111 1.11948,2.846569 0.67999,6.591969 -1.8632,8.539309 -1.6512,1.2738 -3.8828,1.37604 -5.85536,0.9852 -0.7026,0.0595 -0.19312,-1.04628 -0.34766,-1.51367 V 63.307694 c 0.5262,-0.0709 1.05721,-0.10415 1.58789,-0.12109 z m 56.86719,3.7871 c 0.82022,0.6342 1.79726,1.06645 2.81836,1.2461 -1.3874,0.30274 -2.61723,1.054579 -3.97057,1.472919 -2.93501,1.11498 -5.86949,2.23133 -8.80482,3.34544 0.68724,2.32885 1.37379,4.65791 2.0625,6.98633 1.41784,-0.045 2.66974,-0.7788 4.02929,-1.07813 0.15178,6.46489 0.17573,12.93622 0.0332,19.40234 -0.43177,0.10041 -0.0715,-0.89809 -0.20215,-1.22808 -0.0317,-2.48276 0.008,-4.96634 -0.007,-7.44965 -1.9716,1.48765 -3.78234,3.1668 -5.58984,4.8457 -0.0864,-4.87763 0.0424,-9.75815 -0.0768,-14.6349 -0.13444,-2.39704 -0.28776,-4.97411 -1.78885,-6.96811 -1.65467,-2.4133 -4.40149,-3.857919 -7.23116,-4.385309 -0.45882,-0.10427 -0.92222,-0.18832 -1.38756,-0.25777 1.13859,-0.16851 2.24593,-0.63707 3.11718,-1.39648 2.34672,1.94672 6.08975,1.99151 8.42578,0.004 2.35994,1.9338 6.108,1.99147 8.44727,-0.008 l 0.077,0.0638 z m 67.390611,0.0352 c 0.63793,0.48505 1.35942,0.86112 2.13086,1.08203 -4.30005,0.17004 -8.73713,1.883359 -11.42988,5.354329 -2.03526,2.50682 -2.72924,6.29289 -0.99511,9.14102 0.94343,1.55655 2.65821,2.56849 4.46015,2.73707 -2.82316,1.66283 -5.39907,4.11153 -6.30585,7.35212 -0.55972,1.90128 -0.52248,3.96638 -0.075,5.87054 -0.51329,-0.0369 -1.23848,0.13936 -1.60715,-0.2408 -0.28458,-1.30132 -0.0293,-2.6459 -0.15074,-3.96428 -0.001,-8.66536 -0.003,-17.33073 -0.004,-25.996089 1.90877,0.35224 3.97538,-0.13511 5.48633,-1.36524 2.35999,1.90311 6.07257,1.93501 8.39453,-0.0488 l 0.0775,0.0632 z m -16.33203,0.42188 c 0.36344,0.22897 0.7403,0.44004 1.15235,0.56836 -1.03305,0.0126 -2.06796,-0.0357 -3.09961,0.0332 0.52351,-0.23869 1.00588,-0.56438 1.43945,-0.94141 0.16927,0.11328 0.33854,0.22656 0.50781,0.33985 z m -75.642571,8.974599 c 1.07337,-0.037 2.26555,0.62088 2.37808,1.77909 0.18389,0.68814 0.21337,1.40381 0.24692,2.11154 -1.80528,0.61968 -3.59259,1.29047 -5.36133,2.00781 0.84693,-1.51609 0.88438,-3.30156 0.75558,-4.98643 0.0351,-0.79651 1.06927,-0.83783 1.67264,-0.9074 0.10249,-0.009 0.20542,-0.003 0.30811,-0.005 z m 95.228511,0.0215 c 0.99762,-0.0122 2.04902,0.64374 2.14124,1.70305 0.19024,0.70205 0.24528,1.43217 0.27282,2.15632 -1.79168,0.65534 -3.58625,1.30159 -5.35937,2.00586 0.8426,-1.52929 0.88765,-3.32771 0.74609,-5.02148 0.1257,-0.81117 1.17569,-0.83041 1.82652,-0.85453 0.12424,0.004 0.24847,0.007 0.3727,0.0108 z m -92.560541,18.22461 c -1.35168,0.87645 -2.88186,2.07834 -4.59198,1.69279 -1.61044,-0.78813 -1.70386,-3.29023 -0.30406,-4.33728 1.3492,-1.35735 3.17199,-2.05714 4.89604,-2.80278 z m 95.017571,0.002 c -1.35567,0.87981 -2.87577,2.06606 -4.5918,1.69922 -1.62101,-0.80581 -1.70413,-3.32809 -0.27955,-4.37373 1.35128,-1.33234 3.15477,-2.03809 4.87135,-2.76689 z">
    <title
       id="title63">Party 1</title>
  </path>
  <path
     id="path1"
     style="display:inline;fill:#000000;stroke-width:0.264583"
     class="seat-party-1"
     d="m 107.53514,6.8313964 a 3.5175252,3.5175252 0 0 0 -3.51762,3.5176196 3.5175252,3.5175252 0 0 0 3.51762,3.517611 3.5175252,3.5175252 0 0 0 3.51762,-3.517611 3.5175252,3.5175252 0 0 0 -3.51762,-3.5176196 z m -10.271721,0.969971 a 3.5175252,3.5175252 0 0 0 -3.51761,3.5176116 3.5175252,3.5175252 0 0 0 3.51761,3.517619 3.5175252,3.5175252 0 0 0 3.517611,-3.517619 3.5175252,3.5175252 0 0 0 -3.517611,-3.5176116 z m 20.543441,0 a 3.5175252,3.5175252 0 0 0 -3.51761,3.5176116 3.5175252,3.5175252 0 0 0 3.51761,3.517619 3.5175252,3.5175252 0 0 0 3.5171,-3.517619 3.5175252,3.5175252 0 0 0 -3.5171,-3.5176116 z M 87.354979,10.677674 a 3.5175252,3.5175252 0 0 0 -3.51761,3.5171 3.5175252,3.5175252 0 0 0 3.51761,3.517611 3.5175252,3.5175252 0 0 0 3.51761,-3.517611 3.5175252,3.5175252 0 0 0 -3.51761,-3.5171 z m 40.360321,0 a 3.5175252,3.5175252 0 0 0 -3.51762,3.5171 3.5175252,3.5175252 0 0 0 3.51762,3.517611 3.5175252,3.5175252 0 0 0 3.5171,-3.517611 3.5175252,3.5175252 0 0 0 -3.5171,-3.5171 z m -20.16621,4.541845 a 3.5175252,3.5175252 0 0 0 -3.5171,3.517611 3.5175252,3.5175252 0 0 0 3.5171,3.517101 3.5175252,3.5175252 0 0 0 3.51762,-3.517101 3.5175252,3.5175252 0 0 0 -3.51762,-3.517611 z m -29.388891,0.137975 a 3.5175252,3.5175252 0 0 0 -3.51762,3.517612 3.5175252,3.5175252 0 0 0 3.51762,3.51762 3.5175252,3.5175252 0 0 0 3.51761,-3.51762 3.5175252,3.5175252 0 0 0 -3.51761,-3.517612 z m 58.749371,0 a 3.5175252,3.5175252 0 0 0 -3.5171,3.517612 3.5175252,3.5175252 0 0 0 3.5171,3.51762 3.5175252,3.5175252 0 0 0 3.51762,-3.51762 3.5175252,3.5175252 0 0 0 -3.51762,-3.517612 z m -39.213621,0.91519 a 3.5175252,3.5175252 0 0 0 -3.51761,3.517612 3.5175252,3.5175252 0 0 0 3.51761,3.517619 3.5175252,3.5175252 0 0 0 3.517621,-3.517619 3.5175252,3.5175252 0 0 0 -3.517621,-3.517612 z m 19.705771,0.0063 a 3.5175252,3.5175252 0 0 0 -3.5171,3.517611 3.5175252,3.5175252 0 0 0 3.5171,3.51762 3.5175252,3.5175252 0 0 0 3.51762,-3.51762 3.5175252,3.5175252 0 0 0 -3.51762,-3.517611 z m -29.111911,3.112472 a 3.5175252,3.5175252 0 0 0 -3.51762,3.517093 3.5175252,3.5175252 0 0 0 3.51762,3.517619 3.5175252,3.5175252 0 0 0 3.51762,-3.517619 3.5175252,3.5175252 0 0 0 -3.51762,-3.517093 z m 38.516511,0.01187 a 3.5175252,3.5175252 0 0 0 -3.51762,3.5171 3.5175252,3.5175252 0 0 0 3.51762,3.517612 3.5175252,3.5175252 0 0 0 3.51709,-3.517612 3.5175252,3.5175252 0 0 0 -3.51709,-3.5171 z m -56.802221,2.273245 a 3.5175252,3.5175252 0 0 0 -3.51761,3.51762 3.5175252,3.5175252 0 0 0 3.51761,3.517611 3.5175252,3.5175252 0 0 0 3.51762,-3.517611 3.5175252,3.5175252 0 0 0 -3.51762,-3.51762 z m 75.061561,0 a 3.5175252,3.5175252 0 0 0 -3.51761,3.51762 3.5175252,3.5175252 0 0 0 3.51761,3.517611 3.5175252,3.5175252 0 0 0 3.51762,-3.517611 3.5175252,3.5175252 0 0 0 -3.51762,-3.51762 z m -42.60565,2.270654 a 3.5175252,3.5175252 0 0 0 -3.517621,3.517611 3.5175252,3.5175252 0 0 0 3.517621,3.517101 3.5175252,3.5175252 0 0 0 3.51708,-3.517101 3.5175252,3.5175252 0 0 0 -3.51708,-3.517611 z m 10.21228,0.0083 a 3.5175252,3.5175252 0 0 0 -3.51761,3.517612 3.5175252,3.5175252 0 0 0 3.51761,3.517611 3.5175252,3.5175252 0 0 0 3.51762,-3.517611 3.5175252,3.5175252 0 0 0 -3.51762,-3.517612 z m -32.913741,0.47744 a 3.5175252,3.5175252 0 0 0 -3.5171,3.517093 3.5175252,3.5175252 0 0 0 3.5171,3.517619 3.5175252,3.5175252 0 0 0 3.51761,-3.517619 3.5175252,3.5175252 0 0 0 -3.51761,-3.517093 z m 55.575411,0.01705 a 3.5175252,3.5175252 0 0 0 -3.51762,3.517612 3.5175252,3.5175252 0 0 0 3.51762,3.517101 3.5175252,3.5175252 0 0 0 3.51761,-3.517101 3.5175252,3.5175252 0 0 0 -3.51761,-3.517612 z m -42.721931,2.202446 a 3.5175252,3.5175252 0 0 0 -3.5171,3.517612 3.5175252,3.5175252 0 0 0 3.5171,3.517619 3.5175252,3.5175252 0 0 0 3.51761,-3.517619 3.5175252,3.5175252 0 0 0 -3.51761,-3.517612 z m 29.903081,0.02484 a 3.5175252,3.5175252 0 0 0 -3.51762,3.517101 3.5175252,3.5175252 0 0 0 3.51762,3.517612 3.5175252,3.5175252 0 0 0 3.51761,-3.517612 3.5175252,3.5175252 0 0 0 -3.51761,-3.517101 z m -59.339531,2.733167 a 3.5175252,3.5175252 0 0 0 -3.51761,3.517612 3.5175252,3.5175252 0 0 0 3.51761,3.517619 3.5175252,3.5175252 0 0 0 3.51761,-3.517619 3.5175252,3.5175252 0 0 0 -3.51761,-3.517612 z m 88.719131,0 a 3.5175252,3.5175252 0 0 0 -3.51762,3.517612 3.5175252,3.5175252 0 0 0 3.51762,3.517619 3.5175252,3.5175252 0 0 0 3.51761,-3.517619 3.5175252,3.5175252 0 0 0 -3.51761,-3.517612 z M 72.490259,31.1685 a 3.5175252,3.5175252 0 0 0 -3.51761,3.517611 3.5175252,3.5175252 0 0 0 3.51761,3.517101 3.5175252,3.5175252 0 0 0 3.51761,-3.517101 3.5175252,3.5175252 0 0 0 -3.51761,-3.517611 z m 70.108371,0.02122 a 3.5175252,3.5175252 0 0 0 -3.51761,3.517611 3.5175252,3.5175252 0 0 0 3.51761,3.51762 3.5175252,3.5175252 0 0 0 3.5171,-3.51762 3.5175252,3.5175252 0 0 0 -3.5171,-3.517611 z m -58.761261,0.687292 a 3.5175252,3.5175252 0 0 0 -3.51762,3.51762 3.5175252,3.5175252 0 0 0 3.51762,3.517611 3.5175252,3.5175252 0 0 0 3.51761,-3.517611 3.5175252,3.5175252 0 0 0 -3.51761,-3.51762 z m 47.444131,0.0393 a 3.5175252,3.5175252 0 0 0 -3.51762,3.51762 3.5175252,3.5175252 0 0 0 3.51762,3.517093 3.5175252,3.5175252 0 0 0 3.51761,-3.517093 3.5175252,3.5175252 0 0 0 -3.51761,-3.51762 z m -23.69365,0.07907 a 3.5175252,3.5175252 0 0 0 -3.51761,3.517612 3.5175252,3.5175252 0 0 0 3.51761,3.517619 3.5175252,3.5175252 0 0 0 3.51761,-3.517619 3.5175252,3.5175252 0 0 0 -3.51761,-3.517612 z m -10.562661,1.921842 a 3.5175252,3.5175252 0 0 0 -3.51709,3.517619 3.5175252,3.5175252 0 0 0 3.51709,3.517612 3.5175252,3.5175252 0 0 0 3.517621,-3.517612 3.5175252,3.5175252 0 0 0 -3.517621,-3.517619 z m 21.118091,0.03718 a 3.5175252,3.5175252 0 0 0 -3.51762,3.517619 3.5175252,3.5175252 0 0 0 3.51762,3.517612 3.5175252,3.5175252 0 0 0 3.51761,-3.517612 3.5175252,3.5175252 0 0 0 -3.51761,-3.517619 z m -60.227841,4.332041 a 3.5175252,3.5175252 0 0 0 -3.51762,3.517611 3.5175252,3.5175252 0 0 0 3.51762,3.517612 3.5175252,3.5175252 0 0 0 3.51761,-3.517612 3.5175252,3.5175252 0 0 0 -3.51761,-3.517611 z m 99.239411,0 a 3.5175252,3.5175252 0 0 0 -3.51762,3.517611 3.5175252,3.5175252 0 0 0 3.51762,3.517612 3.5175252,3.5175252 0 0 0 3.5171,-3.517612 3.5175252,3.5175252 0 0 0 -3.5171,-3.517611 z m -80.388371,0.959109 a 3.5175252,3.5175252 0 0 0 -3.51761,3.51762 3.5175252,3.5175252 0 0 0 3.51761,3.517611 3.5175252,3.5175252 0 0 0 3.51762,-3.517611 3.5175252,3.5175252 0 0 0 -3.51762,-3.51762 z m -9.95133,0.04598 a 3.5175252,3.5175252 0 0 0 -3.51761,3.517612 3.5175252,3.5175252 0 0 0 3.51761,3.517619 3.5175252,3.5175252 0 0 0 3.51762,-3.517619 3.5175252,3.5175252 0 0 0 -3.51762,-3.517612 z m 71.525351,0.0047 a 3.5175252,3.5175252 0 0 0 -3.51762,3.517611 3.5175252,3.5175252 0 0 0 3.51762,3.51762 3.5175252,3.5175252 0 0 0 3.51761,-3.51762 3.5175252,3.5175252 0 0 0 -3.51761,-3.517611 z m 9.92807,0.02067 a 3.5175252,3.5175252 0 0 0 -3.51761,3.517612 3.5175252,3.5175252 0 0 0 3.51761,3.51762 3.5175252,3.5175252 0 0 0 3.51762,-3.51762 3.5175252,3.5175252 0 0 0 -3.51762,-3.517612 z m -60.432481,0.151408 a 3.5175252,3.5175252 0 0 0 -3.51762,3.51762 3.5175252,3.5175252 0 0 0 3.51762,3.517611 3.5175252,3.5175252 0 0 0 3.51762,-3.517611 3.5175252,3.5175252 0 0 0 -3.51762,-3.51762 z m 39.476651,0.07026 a 3.5175252,3.5175252 0 0 0 -3.51761,3.517101 3.5175252,3.5175252 0 0 0 3.51761,3.517612 3.5175252,3.5175252 0 0 0 3.51762,-3.517612 3.5175252,3.5175252 0 0 0 -3.51762,-3.517101 z M 107.63126,40.384 a 3.5175252,3.5175252 0 0 0 -3.51762,3.517101 3.5175252,3.5175252 0 0 0 3.51762,3.517611 3.5175252,3.5175252 0 0 0 3.51761,-3.517611 3.5175252,3.5175252 0 0 0 -3.51761,-3.517101 z m -9.659351,2.265496 a 3.5175252,3.5175252 0 0 0 -3.51762,3.517611 3.5175252,3.5175252 0 0 0 3.51762,3.51762 3.5175252,3.5175252 0 0 0 3.517611,-3.51762 3.5175252,3.5175252 0 0 0 -3.517611,-3.517611 z m 19.298041,0.08734 a 3.5175252,3.5175252 0 0 0 -3.51762,3.517611 3.5175252,3.5175252 0 0 0 3.51762,3.517101 3.5175252,3.5175252 0 0 0 3.51709,-3.517101 3.5175252,3.5175252 0 0 0 -3.51709,-3.517611 z m -36.048961,5.186769 a 3.5175252,3.5175252 0 0 0 -3.51761,3.517619 3.5175252,3.5175252 0 0 0 3.51761,3.517612 3.5175252,3.5175252 0 0 0 3.5171,-3.517612 3.5175252,3.5175252 0 0 0 -3.5171,-3.517619 z m -26.81076,0.06665 a 3.5175252,3.5175252 0 0 0 -3.51762,3.517612 3.5175252,3.5175252 0 0 0 3.51762,3.517101 3.5175252,3.5175252 0 0 0 3.51709,-3.517101 3.5175252,3.5175252 0 0 0 -3.51709,-3.517612 z m 106.249831,0 a 3.5175252,3.5175252 0 0 0 -3.51761,3.517612 3.5175252,3.5175252 0 0 0 3.51761,3.517101 3.5175252,3.5175252 0 0 0 3.51762,-3.517101 3.5175252,3.5175252 0 0 0 -3.51762,-3.517612 z m -26.76219,0.02688 a 3.5175252,3.5175252 0 0 0 -3.51761,3.517612 3.5175252,3.5175252 0 0 0 3.51761,3.517619 3.5175252,3.5175252 0 0 0 3.51762,-3.517619 3.5175252,3.5175252 0 0 0 -3.51762,-3.517612 z m -61.990521,0.210834 a 3.5175252,3.5175252 0 0 0 -3.51762,3.51762 3.5175252,3.5175252 0 0 0 3.51762,3.517612 3.5175252,3.5175252 0 0 0 3.51709,-3.517612 3.5175252,3.5175252 0 0 0 -3.51709,-3.51762 z m 71.277301,0.0584 a 3.5175252,3.5175252 0 0 0 -3.51711,3.51762 3.5175252,3.5175252 0 0 0 3.51711,3.517612 3.5175252,3.5175252 0 0 0 3.51761,-3.517612 3.5175252,3.5175252 0 0 0 -3.51761,-3.51762 z m -80.193551,0.147282 a 3.5175252,3.5175252 0 0 0 -3.51762,3.517612 3.5175252,3.5175252 0 0 0 3.51762,3.517611 3.5175252,3.5175252 0 0 0 3.51761,-3.517611 3.5175252,3.5175252 0 0 0 -3.51761,-3.517612 z m 89.095841,0.02735 a 3.5175252,3.5175252 0 0 0 -3.5171,3.51762 3.5175252,3.5175252 0 0 0 3.5171,3.517612 3.5175252,3.5175252 0 0 0 3.51762,-3.517612 3.5175252,3.5175252 0 0 0 -3.51762,-3.51762 z M 90.385289,49.04288 a 3.5175252,3.5175252 0 0 0 -3.51761,3.517612 3.5175252,3.5175252 0 0 0 3.51761,3.51762 3.5175252,3.5175252 0 0 0 3.5171,-3.51762 3.5175252,3.5175252 0 0 0 -3.5171,-3.517612 z m 34.413401,0.15555 a 3.5175252,3.5175252 0 0 0 -3.51762,3.517612 3.5175252,3.5175252 0 0 0 3.51762,3.517611 3.5175252,3.5175252 0 0 0 3.51709,-3.517611 3.5175252,3.5175252 0 0 0 -3.51709,-3.517612 z m -14.17226,5.862686 -9.76994,3.771352 0.60823,1.17822 c 0.95431,-0.359161 1.74182,-0.538471 2.36212,-0.538471 0.5726,0 1.03791,0.145883 1.39578,0.437702 0.38172,0.291828 0.65568,0.841899 0.82269,1.650025 0.167,0.785679 0.25063,2.918112 0.25063,6.397541 v 28.014828 c 0,1.90808 -0.15494,3.19918 -0.46509,3.87263 -0.31015,0.673437 -0.73956,1.156147 -1.2883,1.447967 -0.54873,0.29182 -1.57479,0.43771 -3.07783,0.43771 v 1.21181 h 16.06826 v -1.21181 c -1.69392,0 -2.85081,-0.15754 -3.47111,-0.47181 -0.62031,-0.33672 -1.08561,-0.8189 -1.39578,-1.447457 -0.28629,-0.62853 -0.42943,-1.9085 -0.42943,-3.83904 v -40.9112 z M 6.9541997,57.283719 v 1.245915 h 1.82522 c 1.8370693,0 3.2206993,0.49334 4.1511693,1.481051 0.64415,0.69589 0.96634,2.480865 0.96634,5.354192 v 29.496916 c 0,2.60396 -0.23855,4.25317 -0.71572,4.94904 -0.88273,1.257087 -2.35,1.886187 -4.4017893,1.886187 h -1.82522 v 1.24593 H 27.746219 v -1.24593 h -1.86087 c -1.83706,0 -3.2089,-0.49438 -4.11551,-1.48208 -0.66803,-0.695897 -1.002,-2.479817 -1.002,-5.353147 v -13.301 c 1.55075,0.31427 3.00622,0.5498 4.36613,0.70693 1.35991,0.15714 2.62453,0.23616 3.79357,0.23616 4.77161,0 8.45772,-1.16753 11.05824,-3.50211 2.62438,-2.33459 3.93619,-5.36507 3.93619,-9.09143 0,-2.738665 -0.8588,-5.10713 -2.57658,-7.104998 -1.71777,-1.99786 -3.8294,-3.411531 -6.3345,-4.242119 -2.50509,-0.85302 -5.92853,-1.279507 -10.27069,-1.279507 z m 45.8292493,0.894519 a 3.5175252,3.5175252 0 0 0 -3.51762,3.517612 3.5175252,3.5175252 0 0 0 3.51762,3.517619 3.5175252,3.5175252 0 0 0 3.51761,-3.517619 3.5175252,3.5175252 0 0 0 -3.51761,-3.517612 z m 8.40828,0 a 3.5175252,3.5175252 0 0 0 -3.51762,3.517612 3.5175252,3.5175252 0 0 0 3.51762,3.517619 3.5175252,3.5175252 0 0 0 3.51761,-3.517619 3.5175252,3.5175252 0 0 0 -3.51761,-3.517612 z m 8.41757,0 a 3.5175252,3.5175252 0 0 0 -3.51762,3.517612 3.5175252,3.5175252 0 0 0 3.51762,3.517619 3.5175252,3.5175252 0 0 0 3.51761,-3.517619 3.5175252,3.5175252 0 0 0 -3.51761,-3.517612 z m 8.43411,0 a 3.5175252,3.5175252 0 0 0 -3.5171,3.517612 3.5175252,3.5175252 0 0 0 3.5171,3.517619 3.5175252,3.5175252 0 0 0 3.51761,-3.517619 3.5175252,3.5175252 0 0 0 -3.51761,-3.517612 z m 8.47132,0 a 3.5175252,3.5175252 0 0 0 -3.51762,3.517612 3.5175252,3.5175252 0 0 0 3.51762,3.517619 3.5175252,3.5175252 0 0 0 3.51761,-3.517619 3.5175252,3.5175252 0 0 0 -3.51761,-3.517612 z m 75.772111,0 a 3.5175252,3.5175252 0 0 0 -3.51762,3.517612 3.5175252,3.5175252 0 0 0 3.51762,3.517619 3.5175252,3.5175252 0 0 0 3.5171,-3.517619 3.5175252,3.5175252 0 0 0 -3.5171,-3.517612 z m -8.40672,0.02892 a 3.5175252,3.5175252 0 0 0 -3.5171,3.517101 3.5175252,3.5175252 0 0 0 3.5171,3.517612 3.5175252,3.5175252 0 0 0 3.51761,-3.517612 3.5175252,3.5175252 0 0 0 -3.51761,-3.517101 z m -25.2734,0.02892 c -1.02589,0 -1.89702,0.357675 -2.61276,1.073317 -0.69189,0.69178 -1.03766,1.538528 -1.03766,2.540418 0,1.001881 0.3581,1.860945 1.07383,2.576587 0.71575,0.715626 1.57456,1.073317 2.57659,1.073317 1.00204,0 1.84904,-0.357691 2.54093,-1.073317 0.71573,-0.715642 1.07332,-1.574706 1.07332,-2.576587 0,-1.00189 -0.35759,-1.848638 -1.07332,-2.540418 -0.69189,-0.715642 -1.53889,-1.073317 -2.54093,-1.073317 z m 16.85944,0.0047 a 3.5175252,3.5175252 0 0 0 -3.5171,3.517611 3.5175252,3.5175252 0 0 0 3.5171,3.517101 3.5175252,3.5175252 0 0 0 3.51761,-3.517101 3.5175252,3.5175252 0 0 0 -3.51761,-3.517611 z m -8.4274,0.04236 a 3.5175252,3.5175252 0 0 0 -3.51761,3.517612 3.5175252,3.5175252 0 0 0 3.51761,3.517619 3.5175252,3.5175252 0 0 0 3.51762,-3.517619 3.5175252,3.5175252 0 0 0 -3.51762,-3.517612 z m -111.582841,1.72757 c 2.00407,0 3.79351,0.426487 5.36815,1.279507 1.57463,0.830581 2.79154,2.099414 3.65042,3.805454 0.8589,1.683617 1.2883,3.512613 1.2883,5.488034 0,2.87335 -0.90654,5.21953 -2.71974,7.03782 -1.78936,1.79583 -3.92508,2.69337 -6.40633,2.69337 -0.69187,0 -1.52657,-0.0557 -2.50475,-0.16794 -0.97818,-0.11225 -2.09967,-0.28093 -3.36413,-0.5054 V 60.650976 c 1.90863,-0.42651 3.47132,-0.640268 4.68808,-0.640268 z m 60.77665,11.179165 -9.91309,3.77135 0.35761,1.21232 c 0.93045,-0.33671 1.76567,-0.50539 2.50526,-0.50539 0.62031,0 1.13335,0.15753 1.53893,0.47181 0.42944,0.31426 0.71571,0.81927 0.85886,1.51515 0.16701,0.67345 0.25063,2.80587 0.25063,6.39754 v 11.95379 c 0,1.79584 -0.06,2.88434 -0.17932,3.26595 -0.23858,0.785687 -0.65618,1.358037 -1.25263,1.717207 -0.81117,0.49385 -2.05168,0.74104 -3.72173,0.74104 v 1.21181 h 16.78449 v -1.21181 c -1.47918,0 -2.61247,-0.2021 -3.39978,-0.60617 -0.78732,-0.40406 -1.33626,-0.90906 -1.64641,-1.515147 -0.45331,-0.87548 -0.68006,-2.16658 -0.68006,-3.87263 v -14.78204 c 1.14518,-2.11012 2.25486,-3.6251 3.32847,-4.54546 0.50101,-0.44896 0.96582,-0.67334 1.39527,-0.67334 0.50101,0 1.26491,0.39254 2.29081,1.17822 1.04974,0.76323 1.99218,1.14514 2.82722,1.14514 0.85888,0 1.59815,-0.3034 2.21846,-0.9095 0.620321,-0.6061 0.930701,-1.34661 0.930701,-2.22208 0,-0.98771 -0.4294,-1.85182 -1.288291,-2.59261 -0.85889,-0.76323 -1.94446,-1.14515 -3.25665,-1.14515 -2.88682,0 -5.70233,2.31223 -8.44599,6.93653 v -6.93653 z m 44.828271,0 -9.87744,3.77135 0.50075,1.21232 c 0.95432,-0.33671 1.76593,-0.50539 2.43396,-0.50539 0.62029,0 1.10922,0.14587 1.46709,0.4377 0.35787,0.26937 0.62054,0.76323 0.78755,1.48156 0.21472,0.98772 0.32194,3.15408 0.32194,6.49882 v 11.88611 c 0,1.90808 -0.16724,3.19918 -0.50126,3.87263 -0.31015,0.673427 -0.73956,1.156147 -1.28829,1.447967 -0.54874,0.29182 -1.6225,0.4377 -3.22099,0.4377 v 1.21181 h 15.92564 v -1.21181 c -1.55077,0 -2.62454,-0.15754 -3.22099,-0.47181 -0.57259,-0.31427 -1.01379,-0.78532 -1.32396,-1.413857 -0.28628,-0.651 -0.42942,-1.9421 -0.42942,-3.87263 v -24.7826 z m -72.412631,5.1e-4 c -3.79342,0 -6.73975,0.80789 -8.83926,2.42415 -2.0995,1.61626 -3.14916,3.38957 -3.14916,5.32009 0,1.01016 0.27396,1.80691 0.82269,2.39055 0.57259,0.58364 1.30058,0.87591 2.18333,0.87591 0.90661,0 1.63408,-0.28061 2.18281,-0.84181 0.5726,-0.5612 0.85887,-1.35846 0.85887,-2.39107 l -0.0713,-1.95337 c 0,-0.98771 0.45301,-1.86244 1.35961,-2.62567 0.88274,-0.76324 2.07605,-1.14515 3.5791,-1.14515 1.98022,0 3.48288,0.57235 4.50878,1.71721 1.04976,1.14485 1.57458,3.25498 1.57458,6.33035 v 1.21234 c -5.63049,1.93051 -9.66239,3.5691 -12.09591,4.91597 -2.40966,1.34689 -4.10366,2.78336 -5.08186,4.30982 -0.71574,1.09996 -1.07331,2.40222 -1.07331,3.90622 0,2.37948 0.72747,4.29917 2.18281,5.758297 1.47919,1.45912 3.35225,2.18799 5.61878,2.18799 1.45532,0 2.82717,-0.28061 4.11551,-0.84181 0.8589,-0.3816 2.97,-1.79529 6.33398,-4.242117 0.0239,1.840727 0.38195,3.142447 1.07383,3.905697 0.69189,0.76322 1.62252,1.14464 2.79157,1.14464 2.4335,0 4.98634,-1.68314 7.65844,-5.050337 v -1.88619 c -1.43149,1.34687 -2.39802,2.16641 -2.89905,2.45825 -0.28629,0.15714 -0.62027,0.23616 -1.002,0.23616 -0.35788,0 -0.68006,-0.11245 -0.96636,-0.33693 -0.26244,-0.22449 -0.45328,-0.6621 -0.57257,-1.3131 -0.11928,-0.67344 -0.1788,-2.4807 -0.1788,-5.42137 v -10.47223 c 0,-2.98557 -0.21495,-4.96101 -0.6444,-5.92626 -0.66804,-1.48158 -1.70537,-2.57058 -3.11299,-3.26646 -1.86093,-0.92039 -4.24703,-1.37977 -7.1577,-1.37977 z m 95.016931,0 c -3.79342,0 -6.73976,0.80789 -8.83926,2.42415 -2.09951,1.61626 -3.14916,3.38957 -3.14916,5.32009 0,1.01016 0.27396,1.80691 0.82269,2.39055 0.57258,0.58364 1.30058,0.87591 2.18333,0.87591 0.9066,0 1.63407,-0.28061 2.18282,-0.84181 0.57259,-0.5612 0.85886,-1.35846 0.85886,-2.39107 l -0.0713,-1.95337 c 0,-0.98771 0.453,-1.86244 1.3596,-2.62567 0.88276,-0.76324 2.07555,-1.14515 3.5786,-1.14515 1.9802,0 3.48338,0.57235 4.50928,1.71721 1.04976,1.14485 1.57458,3.25498 1.57458,6.33035 v 1.21234 c -5.6305,1.93051 -9.66239,3.5691 -12.0959,4.91597 -2.40966,1.34689 -4.10369,2.78336 -5.08186,4.30982 -0.71575,1.09996 -1.07332,2.40222 -1.07332,3.90622 0,2.37948 0.72747,4.29917 2.18281,5.758297 1.47919,1.45912 3.35227,2.18799 5.61878,2.18799 1.45533,0 2.82717,-0.28061 4.11551,-0.84181 0.85889,-0.3816 2.97,-1.79529 6.33398,-4.242117 0.0239,1.840727 0.38196,3.142447 1.07384,3.905697 0.69189,0.76322 1.62251,1.14464 2.79156,1.14464 2.43351,0 4.98636,-1.68314 7.65845,-5.050337 v -1.88619 c -1.43147,1.34687 -2.39803,2.16641 -2.89905,2.45825 -0.2863,0.15714 -0.62027,0.23616 -1.00201,0.23616 -0.35787,0 -0.68006,-0.11245 -0.96634,-0.33693 -0.26244,-0.22449 -0.45329,-0.6621 -0.57258,-1.3131 -0.11929,-0.67344 -0.1788,-2.4807 -0.1788,-5.42137 v -10.47223 c 0,-2.98557 -0.21496,-4.96101 -0.64441,-5.92626 -0.66802,-1.48158 -1.70587,-2.57058 -3.1135,-3.26646 -1.86091,-0.92039 -4.24651,-1.37977 -7.15719,-1.37977 z m -90.006901,13.36766 v 11.75122 c -2.95839,2.2448 -5.34398,3.36724 -7.15719,3.36724 -1.33605,0 -2.51703,-0.52728 -3.54293,-1.58233 -1.0259,-1.0775 -1.53893,-2.42431 -1.53893,-4.04058 0,-1.27952 0.40581,-2.45872 1.21698,-3.53622 0.81118,-1.0775 2.1589,-2.10977 4.04368,-3.09749 1.04975,-0.5612 3.37583,-1.51495 6.97839,-2.86184 z m 95.016931,0 v 11.75122 c -2.9584,2.2448 -5.34398,3.36724 -7.15718,3.36724 -1.33604,0 -2.51705,-0.52728 -3.54294,-1.58233 -1.0259,-1.0775 -1.53893,-2.42431 -1.53893,-4.04058 0,-1.27952 0.40583,-2.45872 1.21699,-3.53622 0.81116,-1.0775 2.15889,-2.10977 4.04368,-3.09749 1.04976,-0.5612 3.37581,-1.51495 6.97838,-2.86184 z">
    <title
       id="title1">Party 1</title>
  </path>
</svg>
