<?xml version="1.0" encoding="UTF-8" standalone="no"?>
<!-- Created with Inkscape (http://www.inkscape.org/) -->

<svg
   width="169.67644mm"
   height="103.10405mm"
   viewBox="0 0 169.67644 103.10405"
   version="1.1"
   id="svg1"
   xmlns="http://www.w3.org/2000/svg"
   xmlns:svg="http://www.w3.org/2000/svg">
  <defs
     id="defs1" />
  <path
     id="circle135"
     style="display:inline;fill:#ffffff;stroke-width:0.264583"
     class="seat-party-1"
     d="m 103.35911,0.01293903 c -2.02785,0.11774 -3.933255,1.27359997 -5.070302,2.94139997 -2.405049,-2.43433997 -6.782313,-2.68124997 -9.259531,-0.22071 -0.696203,0.63863 -1.260058,1.42446 -1.629141,2.29493 -2.74878,-1.91412 -6.956288,-1.4057 -8.982175,1.32978 -0.640926,0.79864 -1.076775,1.75269 -1.312747,2.74639 -2.762757,-1.25929 -6.330376,-0.34337 -8.064386,2.17484 -0.782496,1.07837 -1.24013,2.38944 -1.306708,3.71969 -3.461623,-0.80753 -7.349166,1.60306 -7.99746,5.1351 -0.174603,0.79864 -0.198224,1.63233 -0.06309,2.43912 -3.612467,-0.16546 -7.00474,3.03724 -6.918377,6.67851 -0.0073,0.77318 0.133389,1.54735 0.398846,2.27267 -3.618562,0.52846 -6.393152,4.40326 -5.521484,8 0.15593,0.70766 0.419936,1.39405 0.796875,2.01367 -3.341628,1.17116 -5.38657,5.26265 -4.038043,8.59773 0.280643,0.78331 0.722736,1.50742 1.274371,2.12883 -3.013798,1.74759 -4.283499,6.02044 -2.455494,9.04586 1.627103,2.89079 5.556143,4.30652 8.583157,2.81601 0.521796,-0.22761 0.983526,-0.5661 1.446556,-0.89117 0.637751,0.50567 1.3697,0.8933 2.148437,1.13086 -3.628359,-0.0321 -7.406097,0.52503 -10.492951,2.55857 -0.569048,0.35755 -1.103023,0.76884 -1.608611,1.21096 0.549687,-4.79863 -1.324219,-9.88058 -5.123981,-12.92993 -3.746059,-3.19317 -8.741175,-4.47239 -13.575922,-4.6239 -5.28976,-0.2715 -10.589788,-0.0627 -15.8840824,-0.13171 H 0.04075767 v 7.40429 c 2.14923593,0.56497 4.43448993,-0.25095 6.54167293,0.50854 0.53477,0.6714 0.185927,1.66527 0.355331,2.47037 0.05481,10.8433 0.10248,21.68868 -0.03958,32.53086 -0.0083,0.5447 -0.08624,1.30812 -0.773438,1.35547 -1.714314,0.35161 -3.481496,-0.0139 -5.21449893,0.19768 -0.833673,-0.16107 -1.00269,0.30139 -0.869485,1.05037 v 6.494141 H 27.185291 v -7.390631 c -2.165437,-0.57769 -4.467847,0.24399 -6.591797,-0.52734 -0.499563,-0.77723 -0.20024,-1.77589 -0.347339,-2.64568 -0.053,-3.41473 -0.03663,-6.82995 -0.03743,-10.24495 5.295676,0.74005 11.010092,0.50596 15.757352,-2.19679 1.45442,-0.84286 2.750221,-1.95214 3.832491,-3.2368 0.275971,2.51888 2.148644,4.86153 4.695313,5.33984 0.607632,0.053 0.789787,0.12775 0.2037,0.41219 -2.844335,1.77056 -5.342425,4.45485 -5.992363,7.83636 -1.025441,4.7678 1.339358,10.255581 5.899991,12.261221 4.381512,1.98309 9.774396,0.98209 13.431641,-2.04492 1.449475,2.42938 4.583056,3.49077 7.286849,2.88544 1.613896,-0.28287 3.118466,-1.0248 4.441666,-1.97529 0.154448,0.45467 -0.337653,1.55588 0.3,1.52735 h 22.836719 v -7.443361 c -1.736686,-0.36542 -3.613259,0.27428 -5.263672,-0.50391 -0.760985,-1.17895 -0.343412,-2.65658 -0.455381,-3.97461 l -0.0075,-12.37891 c 0.518585,-0.86676 1.028757,-1.75209 1.72461,-2.49218 1.615105,1.18738 3.568079,2.14877 5.628395,1.86355 2.004713,-0.21164 3.893348,-1.42825 4.859886,-3.20535 -0.0054,6.55714 0.02737,13.11585 -0.08203,19.67187 0.01201,0.47766 -0.08558,1.0346 -0.70184,0.87588 -1.148423,-0.0833 -2.43405,0.0451 -3.247286,0.95892 -0.86623,0.85781 -0.907109,2.14181 -0.811348,3.27767 -0.09632,1.092541 0.07621,2.384471 1.115001,2.990121 1.223562,0.75917 2.72252,0.21668 4.066176,0.36031 h 37.321475 v -2.07422 c 3.52519,3.12781 8.93579,3.4763 13.08989,1.44598 1.02593,-0.49043 1.99671,-1.0885 2.92574,-1.74286 1.50862,2.34448 4.53549,3.42223 7.22115,2.82633 3.64306,-0.64831 6.46997,-3.347451 8.69459,-6.137031 0.65749,-0.7848 0.77086,-1.82453 0.65848,-2.80258 v -7.96289 c -1.97105,1.48827 -3.7835,3.16555 -5.58985,4.8457 -0.10543,-5.06058 0.074,-10.1256 -0.10233,-15.18441 -0.14038,-2.21846 -0.36703,-4.57429 -1.75896,-6.4072 -1.64548,-2.41661 -4.38678,-3.85236 -7.20924,-4.39371 -0.94291,-0.2096 -1.90037,-0.35118 -2.86306,-0.42679 0.82085,-0.24345 1.60166,-0.64073 2.25195,-1.20117 2.80013,2.32688 7.53839,1.79353 9.59099,-1.27452 2.05184,-2.80346 1.52899,-7.24564 -1.382,-9.26454 -0.36821,-0.2486 -0.84425,-0.4122 -0.34364,-0.78409 2.02308,-2.6577 1.77369,-6.88994 -0.86339,-9.05771 -0.64522,-0.57367 -1.40545,-1.01778 -2.22266,-1.29687 1.71265,-2.82083 1.00901,-6.92038 -1.77669,-8.795 -0.86252,-0.63221 -1.88529,-1.0337 -2.9362,-1.21672 1.12063,-2.93695 -0.16303,-6.58244 -2.96031,-8.06837 -1.06712,-0.61091 -2.30189,-0.91794 -3.52992,-0.91015 0.55113,-3.21772 -1.61804,-6.61557 -4.77545,-7.45821 -1.06564,-0.31916 -2.2157,-0.36005 -3.30073,-0.11405 -0.07,-3.57355 -3.40837,-6.71878 -6.99698,-6.46739 -0.80996,0.0315 -1.61311,0.22351 -2.35458,0.54942 -0.74392,-3.54122 -4.70043,-6.04865 -8.2115,-5.02495 -0.73785,0.20336 -1.44505,0.52368 -2.07561,0.95854 -1.38724,-3.29509 -5.6562,-5.04500997 -8.90808,-3.45823 -0.73361,0.34609 -1.4018,0.82618 -1.98059,1.39378 -1.30982,-1.92074 -3.65432,-3.09605997 -5.98047,-2.94530997 z M 100.47826,45.979719 c 2.17909,1.2648 5.10041,1.25935 7.18554,-0.20312 0.54316,0.99363 1.35201,1.83276 2.30469,2.44141 -1.83438,2.3e-4 -3.73695,-0.1232 -5.45186,0.66209 -3.86407,1.58868 -7.839748,3.03393 -11.754527,4.57732 7.21e-4,0.448 0.530863,1.09669 0.736418,1.62227 0.859956,1.66841 1.718466,3.33757 2.579349,5.0055 1.110352,-0.0896 2.130793,-0.54903 3.173828,-0.89648 0.130928,3.00642 0.08537,6.01839 0.119141,9.02734 -1.665042,-3.11057 -5.622733,-4.42743 -8.947447,-3.60614 -1.164682,0.26077 -2.282527,0.74946 -3.247866,1.4538 v -1.73828 c -0.721981,0.01 -1.443956,0.0272 -2.166015,0.0137 3.286752,-1.0348 5.150663,-4.92453 4.183854,-8.17898 -0.03926,-0.44422 -0.670129,-1.06089 0.08958,-1.11985 2.304175,-1.01477 3.994886,-3.3832 4.046875,-5.92187 2.653073,0.40978 5.503259,-1.0065 6.7539,-3.39063 0.13151,0.084 0.26302,0.16797 0.39453,0.25195 z m 11.63085,3.14649 c 0.74313,0.16901 1.51537,0.21582 2.27149,0.11133 0.0754,2.62992 1.83442,5.14136 4.30273,6.07031 -1.44977,2.97453 -0.33933,6.91901 2.51563,8.6289 1.1019,0.7039 2.41021,1.07453 3.7168,1.06641 -3.33949,1.39311 -6.76171,2.5974 -10.1334,3.91704 -0.40331,0.28812 -1.47339,0.28889 -1.44233,0.7638 0.91064,2.19922 1.81961,4.39914 2.73002,6.59846 1.23161,-0.096 2.38024,-0.66174 3.54492,-0.94141 0.20942,4.03032 0.15227,8.07226 0.17144,12.1078 -0.0322,2.39377 0.002,4.79982 -0.13823,7.18517 -0.22142,0.4402 -0.86478,0.15168 -1.26797,0.24219 -0.77631,-0.047 -1.57512,0.0644 -2.3192,0.17184 -1.36749,-0.42515 -2.87009,0.13458 -4.21166,-0.34958 -0.2845,-1.41543 -0.0728,-2.876 -0.16043,-4.31054 -0.004,-13.79362 -0.008,-27.58724 -0.0114,-41.38086 0.14388,0.0397 0.28776,0.0794 0.43164,0.11914 z m -90.314443,10.4043 c 2.740491,-0.0959 5.700761,1.47778 6.478334,4.24111 1.119478,2.84657 0.679989,6.59197 -1.863205,8.53931 -1.6512,1.2738 -3.882798,1.37604 -5.855363,0.9852 -0.702595,0.0595 -0.19312,-1.04628 -0.347657,-1.51367 v -12.13086 c 0.526201,-0.0709 1.057212,-0.10415 1.587891,-0.12109 z m 56.867187,3.7871 c 0.820227,0.6342 1.797267,1.06645 2.81836,1.2461 -1.387396,0.30274 -2.617227,1.05458 -3.970571,1.47292 -2.935004,1.11498 -5.869487,2.23133 -8.80482,3.34544 0.68724,2.32885 1.37379,4.65791 2.0625,6.98633 1.417843,-0.045 2.669746,-0.7788 4.029297,-1.07813 0.151774,6.46489 0.175728,12.93622 0.0332,19.40234 -0.431772,0.10041 -0.07146,-0.89809 -0.202148,-1.22808 -0.03172,-2.48276 0.0077,-4.96634 -0.0068,-7.44965 -1.971603,1.48765 -3.782341,3.1668 -5.589844,4.8457 -0.08644,-4.87763 0.04241,-9.75815 -0.0768,-14.6349 -0.134443,-2.39704 -0.287759,-4.97411 -1.788853,-6.96811 -1.654672,-2.4133 -4.401483,-3.85792 -7.23116,-4.38531 -0.458819,-0.10427 -0.922216,-0.18832 -1.387562,-0.25777 1.138593,-0.16851 2.245936,-0.63707 3.117188,-1.39648 2.346721,1.94672 6.089745,1.99151 8.425781,0.004 2.359939,1.9338 6.108,1.99147 8.447266,-0.008 l 0.07702,0.0638 z m 67.390616,0.0352 c 0.63793,0.48505 1.35942,0.86112 2.13086,1.08203 -4.30005,0.17004 -8.73713,1.88336 -11.42988,5.35433 -2.03526,2.50682 -2.72924,6.29289 -0.99511,9.14102 0.94343,1.55655 2.65821,2.56849 4.46015,2.73707 -2.82316,1.66283 -5.39907,4.11153 -6.30585,7.35212 -0.55972,1.90128 -0.52248,3.96638 -0.075,5.87054 -0.51329,-0.0369 -1.23848,0.13936 -1.60715,-0.2408 -0.28458,-1.30132 -0.0293,-2.6459 -0.15074,-3.96428 -10e-4,-8.66536 -0.003,-17.33073 -0.004,-25.99609 1.90877,0.35224 3.97538,-0.13511 5.48633,-1.36524 2.35999,1.90311 6.07257,1.93501 8.39453,-0.0488 l 0.0775,0.0632 z m -16.33203,0.42188 c 0.36344,0.22897 0.7403,0.44004 1.15235,0.56836 -1.03305,0.0126 -2.06796,-0.0357 -3.09961,0.0332 0.52351,-0.23869 1.00588,-0.56438 1.43945,-0.94141 0.16927,0.11328 0.33854,0.22656 0.50781,0.33985 z m -75.64257,8.9746 c 1.073368,-0.037 2.265548,0.62088 2.37808,1.77909 0.183885,0.68814 0.213364,1.40381 0.24692,2.11154 -1.805285,0.61968 -3.592591,1.29047 -5.361328,2.00781 0.846922,-1.51609 0.884378,-3.30156 0.755573,-4.98643 0.03505,-0.79651 1.069275,-0.83783 1.672639,-0.9074 0.102491,-0.009 0.205419,-0.003 0.308116,-0.005 z m 95.22851,0.0215 c 0.99762,-0.0122 2.04902,0.64374 2.14124,1.70305 0.19024,0.70205 0.24528,1.43217 0.27282,2.15632 -1.79168,0.65534 -3.58625,1.30159 -5.35937,2.00586 0.8426,-1.52929 0.88765,-3.32771 0.74609,-5.02148 0.1257,-0.81117 1.17569,-0.83041 1.82652,-0.85453 0.12424,0.004 0.24847,0.007 0.3727,0.0108 z m -92.560541,18.22461 c -1.351682,0.87645 -2.881864,2.07834 -4.591978,1.69279 -1.610441,-0.78813 -1.703864,-3.29023 -0.304061,-4.33728 1.3492,-1.35735 3.171989,-2.05714 4.896039,-2.80278 z m 95.017571,0.002 c -1.35567,0.87981 -2.87577,2.06606 -4.5918,1.69922 -1.62101,-0.80581 -1.70413,-3.32809 -0.27955,-4.37373 1.35128,-1.33234 3.15477,-2.03809 4.87135,-2.76689 z">
    <title
       id="title63">Party 1</title>
  </path>
  <path
     id="path1"
     style="display:inline;fill:#000000;stroke-width:0.264583"
     class="seat-party-1"
     d="m 103.79865,3.1753007 a 3.5175252,3.5175252 0 0 0 -3.51762,3.5176196 3.5175252,3.5175252 0 0 0 3.51762,3.5176117 3.5175252,3.5175252 0 0 0 3.51762,-3.5176117 3.5175252,3.5175252 0 0 0 -3.51762,-3.5176196 z M 93.526931,4.145272 A 3.5175252,3.5175252 0 0 0 90.009319,7.6628837 3.5175252,3.5175252 0 0 0 93.526931,11.180503 3.5175252,3.5175252 0 0 0 97.044542,7.6628837 3.5175252,3.5175252 0 0 0 93.526931,4.145272 Z m 20.543439,0 a 3.5175252,3.5175252 0 0 0 -3.51761,3.5176117 3.5175252,3.5175252 0 0 0 3.51761,3.5176193 3.5175252,3.5175252 0 0 0 3.5171,-3.5176193 3.5175252,3.5175252 0 0 0 -3.5171,-3.5176117 z M 83.61849,7.0215781 A 3.5175252,3.5175252 0 0 0 80.100878,10.538679 3.5175252,3.5175252 0 0 0 83.61849,14.05629 3.5175252,3.5175252 0 0 0 87.136102,10.538679 3.5175252,3.5175252 0 0 0 83.61849,7.0215781 Z m 40.36032,0 a 3.5175252,3.5175252 0 0 0 -3.51762,3.5171009 3.5175252,3.5175252 0 0 0 3.51762,3.517611 3.5175252,3.5175252 0 0 0 3.5171,-3.517611 3.5175252,3.5175252 0 0 0 -3.5171,-3.5171009 z M 103.8126,11.563424 a 3.5175252,3.5175252 0 0 0 -3.5171,3.517611 3.5175252,3.5175252 0 0 0 3.5171,3.517101 3.5175252,3.5175252 0 0 0 3.51762,-3.517101 3.5175252,3.5175252 0 0 0 -3.51762,-3.517611 z m -29.388897,0.137975 a 3.5175252,3.5175252 0 0 0 -3.517612,3.517612 3.5175252,3.5175252 0 0 0 3.517612,3.51762 3.5175252,3.5175252 0 0 0 3.517612,-3.51762 3.5175252,3.5175252 0 0 0 -3.517612,-3.517612 z m 58.749377,0 a 3.5175252,3.5175252 0 0 0 -3.5171,3.517612 3.5175252,3.5175252 0 0 0 3.5171,3.51762 3.5175252,3.5175252 0 0 0 3.51762,-3.51762 3.5175252,3.5175252 0 0 0 -3.51762,-3.517612 z m -39.213619,0.91519 a 3.5175252,3.5175252 0 0 0 -3.517611,3.517612 3.5175252,3.5175252 0 0 0 3.517611,3.517619 3.5175252,3.5175252 0 0 0 3.517612,-3.517619 3.5175252,3.5175252 0 0 0 -3.517612,-3.517612 z m 19.705769,0.0063 a 3.5175252,3.5175252 0 0 0 -3.5171,3.517611 3.5175252,3.5175252 0 0 0 3.5171,3.51762 3.5175252,3.5175252 0 0 0 3.51762,-3.51762 3.5175252,3.5175252 0 0 0 -3.51762,-3.517611 z m -29.111909,3.112472 a 3.5175252,3.5175252 0 0 0 -3.51762,3.517093 3.5175252,3.5175252 0 0 0 3.51762,3.517619 3.5175252,3.5175252 0 0 0 3.517612,-3.517619 3.5175252,3.5175252 0 0 0 -3.517612,-3.517093 z m 38.516509,0.01187 a 3.5175252,3.5175252 0 0 0 -3.51762,3.5171 3.5175252,3.5175252 0 0 0 3.51762,3.517612 3.5175252,3.5175252 0 0 0 3.51709,-3.517612 3.5175252,3.5175252 0 0 0 -3.51709,-3.5171 z m -56.802219,2.273245 a 3.5175252,3.5175252 0 0 0 -3.517611,3.51762 3.5175252,3.5175252 0 0 0 3.517611,3.517611 3.5175252,3.5175252 0 0 0 3.517612,-3.517611 3.5175252,3.5175252 0 0 0 -3.517612,-3.51762 z m 75.061559,0 a 3.5175252,3.5175252 0 0 0 -3.51761,3.51762 3.5175252,3.5175252 0 0 0 3.51761,3.517611 3.5175252,3.5175252 0 0 0 3.51762,-3.517611 3.5175252,3.5175252 0 0 0 -3.51762,-3.51762 z M 98.723514,20.29113 a 3.5175252,3.5175252 0 0 0 -3.517619,3.517611 3.5175252,3.5175252 0 0 0 3.517619,3.517101 3.5175252,3.5175252 0 0 0 3.517086,-3.517101 3.5175252,3.5175252 0 0 0 -3.517086,-3.517611 z m 10.212286,0.0083 a 3.5175252,3.5175252 0 0 0 -3.51761,3.517612 3.5175252,3.5175252 0 0 0 3.51761,3.517611 3.5175252,3.5175252 0 0 0 3.51762,-3.517611 3.5175252,3.5175252 0 0 0 -3.51762,-3.517612 z m -32.913742,0.47744 a 3.5175252,3.5175252 0 0 0 -3.5171,3.517093 3.5175252,3.5175252 0 0 0 3.5171,3.517619 3.5175252,3.5175252 0 0 0 3.517612,-3.517619 3.5175252,3.5175252 0 0 0 -3.517612,-3.517093 z m 55.575412,0.01705 a 3.5175252,3.5175252 0 0 0 -3.51762,3.517612 3.5175252,3.5175252 0 0 0 3.51762,3.517101 3.5175252,3.5175252 0 0 0 3.51761,-3.517101 3.5175252,3.5175252 0 0 0 -3.51761,-3.517612 z m -42.721932,2.202446 a 3.5175252,3.5175252 0 0 0 -3.517101,3.517612 3.5175252,3.5175252 0 0 0 3.517101,3.517619 3.5175252,3.5175252 0 0 0 3.517611,-3.517619 3.5175252,3.5175252 0 0 0 -3.517611,-3.517612 z m 29.903082,0.02484 a 3.5175252,3.5175252 0 0 0 -3.51762,3.517101 3.5175252,3.5175252 0 0 0 3.51762,3.517612 3.5175252,3.5175252 0 0 0 3.51761,-3.517612 3.5175252,3.5175252 0 0 0 -3.51761,-3.517101 z m -59.339532,2.733167 a 3.5175252,3.5175252 0 0 0 -3.517612,3.517612 3.5175252,3.5175252 0 0 0 3.517612,3.517619 3.5175252,3.5175252 0 0 0 3.517612,-3.517619 3.5175252,3.5175252 0 0 0 -3.517612,-3.517612 z m 88.719132,0 a 3.5175252,3.5175252 0 0 0 -3.51762,3.517612 3.5175252,3.5175252 0 0 0 3.51762,3.517619 3.5175252,3.5175252 0 0 0 3.51761,-3.517619 3.5175252,3.5175252 0 0 0 -3.51761,-3.517612 z m -79.404454,1.758032 a 3.5175252,3.5175252 0 0 0 -3.517612,3.517611 3.5175252,3.5175252 0 0 0 3.517612,3.517101 3.5175252,3.5175252 0 0 0 3.517612,-3.517101 3.5175252,3.5175252 0 0 0 -3.517612,-3.517611 z m 70.108374,0.02122 a 3.5175252,3.5175252 0 0 0 -3.51761,3.517611 3.5175252,3.5175252 0 0 0 3.51761,3.51762 3.5175252,3.5175252 0 0 0 3.5171,-3.51762 3.5175252,3.5175252 0 0 0 -3.5171,-3.517611 z m -58.761262,0.687292 a 3.5175252,3.5175252 0 0 0 -3.517619,3.51762 3.5175252,3.5175252 0 0 0 3.517619,3.517611 3.5175252,3.5175252 0 0 0 3.517612,-3.517611 3.5175252,3.5175252 0 0 0 -3.517612,-3.51762 z m 47.444132,0.0393 a 3.5175252,3.5175252 0 0 0 -3.51762,3.51762 3.5175252,3.5175252 0 0 0 3.51762,3.517093 3.5175252,3.5175252 0 0 0 3.51761,-3.517093 3.5175252,3.5175252 0 0 0 -3.51761,-3.51762 z m -23.69365,0.07907 a 3.5175252,3.5175252 0 0 0 -3.51761,3.517612 3.5175252,3.5175252 0 0 0 3.51761,3.517619 3.5175252,3.5175252 0 0 0 3.51761,-3.517619 3.5175252,3.5175252 0 0 0 -3.51761,-3.517612 z m -10.562662,1.921842 a 3.5175252,3.5175252 0 0 0 -3.517093,3.517619 3.5175252,3.5175252 0 0 0 3.517093,3.517612 3.5175252,3.5175252 0 0 0 3.517619,-3.517612 3.5175252,3.5175252 0 0 0 -3.517619,-3.517619 z m 21.118092,0.03718 a 3.5175252,3.5175252 0 0 0 -3.51762,3.517619 3.5175252,3.5175252 0 0 0 3.51762,3.517612 3.5175252,3.5175252 0 0 0 3.51761,-3.517612 3.5175252,3.5175252 0 0 0 -3.51761,-3.517619 z M 54.178944,34.63035 a 3.5175252,3.5175252 0 0 0 -3.517612,3.517611 3.5175252,3.5175252 0 0 0 3.517612,3.517612 3.5175252,3.5175252 0 0 0 3.517612,-3.517612 3.5175252,3.5175252 0 0 0 -3.517612,-3.517611 z m 99.239416,0 a 3.5175252,3.5175252 0 0 0 -3.51762,3.517611 3.5175252,3.5175252 0 0 0 3.51762,3.517612 3.5175252,3.5175252 0 0 0 3.5171,-3.517612 3.5175252,3.5175252 0 0 0 -3.5171,-3.517611 z m -80.388372,0.959109 a 3.5175252,3.5175252 0 0 0 -3.517612,3.51762 3.5175252,3.5175252 0 0 0 3.517612,3.517611 3.5175252,3.5175252 0 0 0 3.51762,-3.517611 3.5175252,3.5175252 0 0 0 -3.51762,-3.51762 z m -9.951331,0.04598 a 3.5175252,3.5175252 0 0 0 -3.517611,3.517612 3.5175252,3.5175252 0 0 0 3.517611,3.517619 3.5175252,3.5175252 0 0 0 3.51762,-3.517619 3.5175252,3.5175252 0 0 0 -3.51762,-3.517612 z m 71.525353,0.0047 a 3.5175252,3.5175252 0 0 0 -3.51762,3.517611 3.5175252,3.5175252 0 0 0 3.51762,3.51762 3.5175252,3.5175252 0 0 0 3.51761,-3.51762 3.5175252,3.5175252 0 0 0 -3.51761,-3.517611 z m 9.92807,0.02067 a 3.5175252,3.5175252 0 0 0 -3.51761,3.517612 3.5175252,3.5175252 0 0 0 3.51761,3.51762 3.5175252,3.5175252 0 0 0 3.51762,-3.51762 3.5175252,3.5175252 0 0 0 -3.51762,-3.517612 z m -60.432479,0.151408 a 3.5175252,3.5175252 0 0 0 -3.51762,3.51762 3.5175252,3.5175252 0 0 0 3.51762,3.517611 3.5175252,3.5175252 0 0 0 3.517612,-3.517611 3.5175252,3.5175252 0 0 0 -3.517612,-3.51762 z m 39.476649,0.07026 a 3.5175252,3.5175252 0 0 0 -3.51761,3.517101 3.5175252,3.5175252 0 0 0 3.51761,3.517612 3.5175252,3.5175252 0 0 0 3.51762,-3.517612 3.5175252,3.5175252 0 0 0 -3.51762,-3.517101 z m -19.68148,0.845428 a 3.5175252,3.5175252 0 0 0 -3.51762,3.517101 3.5175252,3.5175252 0 0 0 3.51762,3.517611 3.5175252,3.5175252 0 0 0 3.51761,-3.517611 3.5175252,3.5175252 0 0 0 -3.51761,-3.517101 z m -9.659357,2.265496 a 3.5175252,3.5175252 0 0 0 -3.517612,3.517611 3.5175252,3.5175252 0 0 0 3.517612,3.51762 3.5175252,3.5175252 0 0 0 3.517619,-3.51762 3.5175252,3.5175252 0 0 0 -3.517619,-3.517611 z m 19.298047,0.08734 a 3.5175252,3.5175252 0 0 0 -3.51762,3.517611 3.5175252,3.5175252 0 0 0 3.51762,3.517101 3.5175252,3.5175252 0 0 0 3.51709,-3.517101 3.5175252,3.5175252 0 0 0 -3.51709,-3.517611 z M 77.484498,44.26751 a 3.5175252,3.5175252 0 0 0 -3.517612,3.517619 3.5175252,3.5175252 0 0 0 3.517612,3.517612 3.5175252,3.5175252 0 0 0 3.517101,-3.517612 3.5175252,3.5175252 0 0 0 -3.517101,-3.517619 z m -26.810763,0.06665 a 3.5175252,3.5175252 0 0 0 -3.51762,3.517612 3.5175252,3.5175252 0 0 0 3.51762,3.517101 3.5175252,3.5175252 0 0 0 3.517093,-3.517101 3.5175252,3.5175252 0 0 0 -3.517093,-3.517612 z m 106.249835,0 a 3.5175252,3.5175252 0 0 0 -3.51761,3.517612 3.5175252,3.5175252 0 0 0 3.51761,3.517101 3.5175252,3.5175252 0 0 0 3.51762,-3.517101 3.5175252,3.5175252 0 0 0 -3.51762,-3.517612 z m -26.76219,0.02688 a 3.5175252,3.5175252 0 0 0 -3.51761,3.517612 3.5175252,3.5175252 0 0 0 3.51761,3.517619 3.5175252,3.5175252 0 0 0 3.51762,-3.517619 3.5175252,3.5175252 0 0 0 -3.51762,-3.517612 z m -61.990523,0.210834 a 3.5175252,3.5175252 0 0 0 -3.517619,3.51762 3.5175252,3.5175252 0 0 0 3.517619,3.517612 3.5175252,3.5175252 0 0 0 3.517093,-3.517612 3.5175252,3.5175252 0 0 0 -3.517093,-3.51762 z m 71.277303,0.0584 a 3.5175252,3.5175252 0 0 0 -3.51711,3.51762 3.5175252,3.5175252 0 0 0 3.51711,3.517612 3.5175252,3.5175252 0 0 0 3.51761,-3.517612 3.5175252,3.5175252 0 0 0 -3.51761,-3.51762 z m -80.193553,0.147282 a 3.5175252,3.5175252 0 0 0 -3.517619,3.517612 3.5175252,3.5175252 0 0 0 3.517619,3.517611 3.5175252,3.5175252 0 0 0 3.517612,-3.517611 3.5175252,3.5175252 0 0 0 -3.517612,-3.517612 z m 89.095843,0.02735 a 3.5175252,3.5175252 0 0 0 -3.5171,3.51762 3.5175252,3.5175252 0 0 0 3.5171,3.517612 3.5175252,3.5175252 0 0 0 3.51762,-3.517612 3.5175252,3.5175252 0 0 0 -3.51762,-3.51762 z m -61.701652,0.581879 a 3.5175252,3.5175252 0 0 0 -3.517612,3.517612 3.5175252,3.5175252 0 0 0 3.517612,3.51762 3.5175252,3.5175252 0 0 0 3.5171,-3.51762 3.5175252,3.5175252 0 0 0 -3.5171,-3.517612 z m 34.413402,0.15555 a 3.5175252,3.5175252 0 0 0 -3.51762,3.517612 3.5175252,3.5175252 0 0 0 3.51762,3.517611 3.5175252,3.5175252 0 0 0 3.51709,-3.517611 3.5175252,3.5175252 0 0 0 -3.51709,-3.517612 z m -14.17226,5.862686 -9.769945,3.771352 0.608232,1.17822 c 0.954307,-0.359161 1.741817,-0.538471 2.362123,-0.538471 0.5726,0 1.03791,0.145883 1.39578,0.437702 0.38172,0.291828 0.65568,0.841899 0.82269,1.650025 0.167,0.785679 0.25063,2.918112 0.25063,6.397541 v 28.01483 c 0,1.90808 -0.15494,3.19918 -0.46509,3.872631 -0.31015,0.673436 -0.73956,1.15615 -1.2883,1.44797 -0.54873,0.29182 -1.574791,0.437702 -3.077833,0.437702 v 1.211812 h 16.068263 v -1.211812 c -1.69392,0 -2.85081,-0.157538 -3.47111,-0.471805 -0.62031,-0.336722 -1.08561,-0.818902 -1.39578,-1.447459 -0.28629,-0.628534 -0.42943,-1.908504 -0.42943,-3.839039 V 51.405018 Z M 3.2177099,53.627624 v 1.245915 h 1.8252157 c 1.837068,0 3.2206989,0.49334 4.1511677,1.481051 0.6441587,0.69589 0.9663477,2.480865 0.9663477,5.354192 v 29.496913 c 0,2.603963 -0.2385548,4.25317 -0.7157201,4.949045 -0.8827374,1.257091 -2.3500025,1.886191 -4.4017953,1.886191 H 3.2177099 v 1.245922 H 24.009726 v -1.245922 h -1.860867 c -1.83706,0 -3.208901,-0.494386 -4.115516,-1.482081 -0.668028,-0.695906 -1.001999,-2.479819 -1.001999,-5.353155 V 77.904698 c 1.550758,0.314274 3.006225,0.549803 4.366136,0.706933 1.359903,0.157137 2.624531,0.236158 3.793571,0.236158 4.771606,0 8.45772,-1.167531 11.05824,-3.502113 2.624381,-2.334589 3.936191,-5.36507 3.936191,-9.091433 0,-2.73866 -0.858805,-5.107125 -2.576587,-7.104993 -1.717767,-1.99786 -3.829395,-3.411531 -6.334499,-4.242119 -2.505089,-0.85302 -5.928527,-1.279507 -10.270691,-1.279507 z m 45.8292491,0.894519 a 3.5175252,3.5175252 0 0 0 -3.51762,3.517612 3.5175252,3.5175252 0 0 0 3.51762,3.517619 3.5175252,3.5175252 0 0 0 3.517611,-3.517619 3.5175252,3.5175252 0 0 0 -3.517611,-3.517612 z m 8.408275,0 a 3.5175252,3.5175252 0 0 0 -3.51762,3.517612 3.5175252,3.5175252 0 0 0 3.51762,3.517619 3.5175252,3.5175252 0 0 0 3.517612,-3.517619 3.5175252,3.5175252 0 0 0 -3.517612,-3.517612 z m 8.417573,0 a 3.5175252,3.5175252 0 0 0 -3.51762,3.517612 3.5175252,3.5175252 0 0 0 3.51762,3.517619 3.5175252,3.5175252 0 0 0 3.517612,-3.517619 3.5175252,3.5175252 0 0 0 -3.517612,-3.517612 z m 8.43411,0 a 3.5175252,3.5175252 0 0 0 -3.517101,3.517612 3.5175252,3.5175252 0 0 0 3.517101,3.517619 3.5175252,3.5175252 0 0 0 3.517611,-3.517619 3.5175252,3.5175252 0 0 0 -3.517611,-3.517612 z m 8.471317,0 a 3.5175252,3.5175252 0 0 0 -3.51762,3.517612 3.5175252,3.5175252 0 0 0 3.51762,3.517619 3.5175252,3.5175252 0 0 0 3.517612,-3.517619 3.5175252,3.5175252 0 0 0 -3.517612,-3.517612 z m 75.772116,0 a 3.5175252,3.5175252 0 0 0 -3.51762,3.517612 3.5175252,3.5175252 0 0 0 3.51762,3.517619 3.5175252,3.5175252 0 0 0 3.5171,-3.517619 3.5175252,3.5175252 0 0 0 -3.5171,-3.517612 z m -8.40672,0.02892 a 3.5175252,3.5175252 0 0 0 -3.5171,3.517101 3.5175252,3.5175252 0 0 0 3.5171,3.517612 3.5175252,3.5175252 0 0 0 3.51761,-3.517612 3.5175252,3.5175252 0 0 0 -3.51761,-3.517101 z m -25.2734,0.02892 c -1.02589,0 -1.89702,0.357675 -2.61276,1.073317 -0.69189,0.69178 -1.03766,1.538528 -1.03766,2.540418 0,1.001881 0.3581,1.860945 1.07383,2.576587 0.71575,0.715626 1.57456,1.073317 2.57659,1.073317 1.00204,0 1.84904,-0.357691 2.54093,-1.073317 0.71573,-0.715642 1.07332,-1.574706 1.07332,-2.576587 0,-1.00189 -0.35759,-1.848638 -1.07332,-2.540418 -0.69189,-0.715642 -1.53889,-1.073317 -2.54093,-1.073317 z m 16.85944,0.0047 a 3.5175252,3.5175252 0 0 0 -3.5171,3.517611 3.5175252,3.5175252 0 0 0 3.5171,3.517101 3.5175252,3.5175252 0 0 0 3.51761,-3.517101 3.5175252,3.5175252 0 0 0 -3.51761,-3.517611 z m -8.4274,0.04236 a 3.5175252,3.5175252 0 0 0 -3.51761,3.517612 3.5175252,3.5175252 0 0 0 3.51761,3.517619 3.5175252,3.5175252 0 0 0 3.51762,-3.517619 3.5175252,3.5175252 0 0 0 -3.51762,-3.517612 z m -111.582844,1.72757 c 2.004069,0 3.793515,0.426487 5.368151,1.279507 1.574627,0.830581 2.79154,2.099414 3.650423,3.805454 0.858899,1.683617 1.288294,3.512613 1.288294,5.488034 0,2.873351 -0.906536,5.219534 -2.719735,7.037817 -1.78936,1.795837 -3.925085,2.693374 -6.406328,2.693374 -0.691874,0 -1.526574,-0.05572 -2.504758,-0.167945 -0.978177,-0.112251 -2.099666,-0.280926 -3.364129,-0.505397 V 56.994881 c 1.908637,-0.42651 3.471326,-0.640268 4.688082,-0.640268 z m 60.776656,11.17916 -9.913094,3.771352 0.357605,1.212323 c 0.930453,-0.336714 1.765671,-0.50539 2.505269,-0.50539 0.620305,0 1.133341,0.157531 1.538929,0.471805 0.429434,0.314267 0.715705,0.819279 0.85886,1.515154 0.167009,0.673452 0.250627,2.805868 0.250627,6.397541 v 11.953789 c 0,1.795836 -0.06005,2.884338 -0.179317,3.265954 -0.238579,0.785687 -0.656184,1.358032 -1.252634,1.717209 -0.811168,0.493844 -2.051675,0.741036 -3.721734,0.741036 v 1.211812 h 16.784499 v -1.211812 c -1.479188,0 -2.612475,-0.202102 -3.399788,-0.606165 -0.787314,-0.404063 -1.336254,-0.909059 -1.64641,-1.515154 -0.453303,-0.875475 -0.680061,-2.166582 -0.680061,-3.87263 V 77.298556 c 1.145186,-2.110119 2.254862,-3.6251 3.328478,-4.545461 0.501011,-0.448957 0.965813,-0.673342 1.395263,-0.673342 0.501011,0 1.264911,0.392541 2.290811,1.17822 1.049747,0.763232 1.992186,1.145146 2.827223,1.145146 0.858884,0 1.598151,-0.303404 2.218464,-0.909499 0.620313,-0.606102 0.930697,-1.346612 0.930697,-2.222087 0,-0.98771 -0.429403,-1.851813 -1.288294,-2.592605 -0.858891,-0.763232 -1.944454,-1.145155 -3.256649,-1.145155 -2.886822,0 -5.702326,2.312237 -8.445993,6.936531 v -6.936531 z m 44.828268,0 -9.87744,3.771352 0.50075,1.212323 c 0.95432,-0.336714 1.76593,-0.50539 2.43396,-0.50539 0.62029,0 1.10922,0.145867 1.46709,0.437695 0.35787,0.269372 0.62054,0.763232 0.78755,1.481561 0.21472,0.987719 0.32194,3.154081 0.32194,6.498828 v 11.886102 c 0,1.90808 -0.16724,3.199179 -0.50126,3.872631 -0.31015,0.673435 -0.73956,1.15615 -1.28829,1.447969 -0.54874,0.29182 -1.6225,0.437702 -3.22099,0.437702 v 1.211812 h 15.92564 v -1.211812 c -1.55077,0 -2.62454,-0.157538 -3.22099,-0.471805 -0.57259,-0.314274 -1.01379,-0.785325 -1.32396,-1.413866 -0.28628,-0.650997 -0.42942,-1.942096 -0.42942,-3.872631 V 67.533648 Z m -72.41263,5.19e-4 c -3.793422,0 -6.739749,0.80789 -8.839258,2.424142 -2.0995,1.61626 -3.14916,3.389571 -3.14916,5.32009 0,1.010165 0.273955,1.80691 0.82269,2.39055 0.572589,0.58364 1.300578,0.875915 2.183323,0.875915 0.906615,0 1.634086,-0.280612 2.182813,-0.841812 0.572597,-0.5612 0.858867,-1.358457 0.858867,-2.391069 l -0.07129,-1.953367 c 0,-0.98771 0.453012,-1.862447 1.359612,-2.625678 0.882737,-0.763232 2.076047,-1.145147 3.579105,-1.145147 1.980215,0 3.48288,0.572353 4.508772,1.717209 1.049763,1.144856 1.574581,3.254983 1.574581,6.330357 v 1.212331 c -5.63049,1.930518 -9.662388,3.5691 -12.095906,4.915979 -2.409657,1.346887 -4.103665,2.783358 -5.081857,4.309814 -0.715744,1.099961 -1.073317,2.402222 -1.073317,3.906223 0,2.379476 0.72747,4.299172 2.182812,5.758302 1.479188,1.459115 3.352253,2.187984 5.618779,2.187984 1.455326,0 2.827175,-0.280604 4.115508,-0.841812 0.8589,-0.3816 2.970001,-1.795286 6.333981,-4.242119 0.02389,1.840738 0.381954,3.142456 1.073836,3.905704 0.691882,0.763224 1.622516,1.144635 2.791564,1.144635 2.433503,0 4.986346,-1.683137 7.658444,-5.050339 v -1.886191 c -1.431489,1.346872 -2.398025,2.166418 -2.899052,2.458253 -0.286287,0.157138 -0.620274,0.236158 -1.002,0.236158 -0.357879,0 -0.680061,-0.112447 -0.966355,-0.336926 -0.262441,-0.224486 -0.453288,-0.662102 -0.572574,-1.313099 -0.119285,-0.673443 -0.178798,-2.4807 -0.178798,-5.421376 V 78.106776 c 0,-2.98557 -0.214953,-4.961007 -0.644402,-5.926255 -0.668037,-1.481585 -1.705373,-2.570582 -3.112991,-3.266465 -1.86093,-0.920385 -4.247031,-1.379764 -7.1577,-1.379764 z m 95.01693,0 c -3.79342,0 -6.73976,0.80789 -8.83926,2.424142 -2.09951,1.61626 -3.14916,3.389571 -3.14916,5.32009 0,1.010165 0.27396,1.80691 0.82269,2.39055 0.57258,0.58364 1.30058,0.875915 2.18333,0.875915 0.9066,0 1.63407,-0.280612 2.18282,-0.841812 0.57259,-0.5612 0.85886,-1.358457 0.85886,-2.391069 l -0.0713,-1.953367 c 0,-0.98771 0.453,-1.862447 1.3596,-2.625678 0.88276,-0.763232 2.07555,-1.145147 3.5786,-1.145147 1.9802,0 3.48338,0.572353 4.50928,1.717209 1.04976,1.144856 1.57458,3.254983 1.57458,6.330357 v 1.212331 c -5.6305,1.930518 -9.66239,3.5691 -12.0959,4.915979 -2.40966,1.346887 -4.10369,2.783358 -5.08186,4.309814 -0.71575,1.099961 -1.07332,2.402222 -1.07332,3.906223 0,2.379476 0.72747,4.299172 2.18281,5.758302 1.47919,1.459115 3.35227,2.187984 5.61878,2.187984 1.45533,0 2.82717,-0.280604 4.11551,-0.841812 0.85889,-0.3816 2.97,-1.795286 6.33398,-4.242119 0.0239,1.840738 0.38196,3.142456 1.07384,3.905704 0.69189,0.763224 1.62251,1.144635 2.79156,1.144635 2.43351,0 4.98636,-1.683137 7.65845,-5.050339 v -1.886191 c -1.43147,1.346872 -2.39803,2.166418 -2.89905,2.458253 -0.2863,0.157138 -0.62027,0.236158 -1.00201,0.236158 -0.35787,0 -0.68006,-0.112447 -0.96634,-0.336926 -0.26244,-0.224486 -0.45329,-0.662102 -0.57258,-1.313099 -0.11929,-0.673443 -0.1788,-2.4807 -0.1788,-5.421376 V 78.106776 c 0,-2.98557 -0.21496,-4.961007 -0.64441,-5.926255 -0.66802,-1.481585 -1.70587,-2.570582 -3.1135,-3.266465 -1.86091,-0.920385 -4.24651,-1.379764 -7.15719,-1.379764 z M 59.921747,80.901947 V 92.65317 c -2.958392,2.244801 -5.343975,3.367242 -7.157189,3.367242 -1.336048,0 -2.517035,-0.527287 -3.542935,-1.582338 -1.025893,-1.077499 -1.538921,-2.424308 -1.538921,-4.040575 0,-1.279523 0.405808,-2.458725 1.216975,-3.536224 0.811176,-1.077498 2.158904,-2.109765 4.04368,-3.097483 1.049754,-0.561208 3.375832,-1.51495 6.97839,-2.861845 z m 95.016933,0 V 92.65317 c -2.9584,2.244801 -5.34398,3.367242 -7.15718,3.367242 -1.33604,0 -2.51705,-0.527287 -3.54294,-1.582338 -1.0259,-1.077499 -1.53893,-2.424308 -1.53893,-4.040575 0,-1.279523 0.40583,-2.458725 1.21699,-3.536224 0.81116,-1.077498 2.15889,-2.109765 4.04368,-3.097483 1.04976,-0.561208 3.37581,-1.51495 6.97838,-2.861845 z">
    <title
       id="title1">Party 1</title>
  </path>
</svg>
